<?xml version="1.0" encoding="UTF-8"?>
<!DOCTYPE svg PUBLIC "-//W3C//DTD SVG 1.1//EN" "http://www.w3.org/Graphics/SVG/1.1/DTD/svg11.dtd">
<!-- Creator: CorelDRAW -->
<svg xmlns="http://www.w3.org/2000/svg" xml:space="preserve" width="220mm" height="220mm" style="shape-rendering:geometricPrecision; text-rendering:geometricPrecision; image-rendering:optimizeQuality; fill-rule:evenodd; clip-rule:evenodd"
viewBox="0 0 220 220"
 xmlns:xlink="http://www.w3.org/1999/xlink">
 <defs>
  <style type="text/css">
   <![CDATA[
    .str0 {stroke:#CC0000;stroke-width:0.0762}
    .fil0 {fill:none}
    .fil2 {fill:#CC0000}
    .fil3 {fill:white}
    .fil1 {fill:#CC0000;fill-rule:nonzero}
   ]]>
  </style>
 </defs>
 <g id="Livello_x0020_1">
  <metadata id="CorelCorpID_0Corel-Layer"/>
  <polygon class="fil0" points="-0,-0.7753 220,-0.7753 220,219.225 -0,219.225 "/>
  <g id="_46356144">
   <polygon id="_56776968" class="fil2" points="108.228,14.6369 112.392,14.738 116.495,15.0512 120.538,15.5666 124.519,16.2842 128.43,17.1837 132.271,18.2751 136.02,19.5484 139.699,20.9936 143.277,22.6107 146.763,24.3994 150.149,26.3398 153.433,28.4419 156.597,30.7058 159.649,33.1009 162.589,35.6477 165.399,38.3157 168.067,41.1253 170.614,44.0662 173.009,47.1182 175.273,50.2814 177.375,53.566 179.315,56.9516 181.104,60.4382 182.721,64.0159 184.166,67.6945 185.44,71.4439 186.531,75.2842 187.431,79.1953 188.148,83.1772 188.664,87.2197 188.977,91.3228 189.078,95.4866 188.977,99.6503 188.664,103.754 188.148,107.796 187.431,111.778 186.531,115.689 185.44,119.529 184.166,123.279 182.721,126.957 181.104,130.535 179.315,134.022 177.375,137.407 175.273,140.692 173.009,143.855 170.614,146.907 168.067,149.848 165.399,152.658 162.589,155.336 159.649,157.872 156.597,160.267 153.433,162.531 150.149,164.633 146.763,166.574 143.277,168.363 139.699,169.98 136.02,171.425 132.271,172.698 128.43,173.79 124.519,174.689 120.538,175.406 116.495,175.922 112.392,176.235 108.228,176.336 104.065,176.235 99.9613,175.922 95.9188,175.406 91.9369,174.689 88.0258,173.79 84.1855,172.698 80.4361,171.425 76.7575,169.98 73.1798,168.363 69.6932,166.574 66.3076,164.633 63.0231,162.531 59.8598,160.267 56.8078,157.872 53.8669,155.336 51.0573,152.658 48.3792,149.848 45.8425,146.907 43.4474,143.855 41.1835,140.692 39.0814,137.407 37.141,134.022 35.3523,130.535 33.7353,126.957 32.2901,123.279 31.0167,119.529 29.9253,115.689 29.0258,111.778 28.3083,107.796 27.7928,103.754 27.4796,99.6503 27.3785,95.4866 27.4796,91.3228 27.7928,87.2197 28.3083,83.1772 29.0258,79.1953 29.9253,75.2842 31.0167,71.4439 32.2901,67.6945 33.7353,64.0159 35.3523,60.4382 37.141,56.9516 39.0814,53.566 41.1835,50.2814 43.4474,47.1182 45.8425,44.0662 48.3792,41.1253 51.0573,38.3157 53.8669,35.6477 56.8078,33.1009 59.8598,30.7058 63.0231,28.4419 66.3076,26.3398 69.6932,24.3994 73.1798,22.6107 76.7575,20.9936 80.4361,19.5484 84.1855,18.2751 88.0258,17.1837 91.9369,16.2842 95.9188,15.5666 99.9613,15.0512 104.065,14.738 "/>
   <polygon id="_56189328" class="fil3" points="108.228,16.4257 112.291,16.5267 116.313,16.8299 120.265,17.3352 124.156,18.0325 127.986,18.9118 131.735,19.983 135.414,21.2261 139.002,22.641 142.498,24.2276 145.914,25.9659 149.219,27.876 152.433,29.9275 155.525,32.1307 158.517,34.4854 161.387,36.9716 164.126,39.5891 166.743,42.3279 169.229,45.198 171.584,48.1895 173.787,51.282 175.839,54.4957 177.749,57.8005 179.487,61.2164 181.074,64.7131 182.489,68.3009 183.732,71.9795 184.803,75.729 185.682,79.5592 186.38,83.4501 186.885,87.4016 187.188,91.4238 187.289,95.4866 187.188,99.5593 186.885,103.572 186.38,107.523 185.682,111.414 184.803,115.244 183.732,118.994 182.489,122.672 181.074,126.26 179.487,129.757 177.749,133.173 175.839,136.477 173.787,139.691 171.584,142.784 169.229,145.775 166.743,148.645 164.126,151.384 161.387,154.002 158.517,156.488 155.525,158.842 152.433,161.046 149.219,163.097 145.914,165.007 142.498,166.745 139.002,168.332 135.414,169.747 131.735,170.99 127.986,172.061 124.156,172.941 120.265,173.638 116.313,174.143 112.291,174.447 108.228,174.548 104.155,174.447 100.143,174.143 96.1917,173.638 92.3008,172.941 88.4706,172.061 84.7212,170.99 81.0425,169.747 77.4548,168.332 73.958,166.745 70.5421,165.007 67.2374,163.097 64.0236,161.046 60.9311,158.842 57.9397,156.488 55.0695,154.002 52.3307,151.384 49.7132,148.645 47.2271,145.775 44.8723,142.784 42.6692,139.691 40.6176,136.477 38.7075,133.173 36.9692,129.757 35.3826,126.26 33.9678,122.672 32.7247,118.994 31.6534,115.244 30.7741,111.414 30.0768,107.523 29.5715,103.572 29.2683,99.5593 29.1673,95.4866 29.2683,91.4238 29.5715,87.4016 30.0768,83.4501 30.7741,79.5592 31.6534,75.729 32.7247,71.9795 33.9678,68.3009 35.3826,64.7131 36.9692,61.2164 38.7075,57.8005 40.6176,54.4957 42.6692,51.282 44.8723,48.1895 47.2271,45.198 49.7132,42.3279 52.3307,39.5891 55.0695,36.9716 57.9397,34.4854 60.9311,32.1307 64.0236,29.9275 67.2374,27.876 70.5421,25.9659 73.958,24.2276 77.4548,22.641 81.0425,21.2261 84.7212,19.983 88.4706,18.9118 92.3008,18.0325 96.1917,17.3352 100.143,16.8299 104.155,16.5267 "/>
   <polygon id="_56559336" class="fil2" points="108.228,42.5401 110.957,42.6108 113.645,42.813 116.293,43.1465 118.9,43.6214 121.457,44.2076 123.974,44.9251 126.43,45.7539 128.835,46.7039 131.179,47.765 133.463,48.9373 135.677,50.2107 137.829,51.5851 139.901,53.0606 141.902,54.6372 143.822,56.2947 145.662,58.0532 147.42,59.8925 149.077,61.8127 150.654,63.8137 152.13,65.8855 153.504,68.0381 154.777,70.2514 155.95,72.5353 157.011,74.88 157.961,77.2853 158.79,79.7411 159.507,82.2576 160.093,84.8144 160.568,87.4218 160.902,90.0696 161.104,92.7579 161.175,95.4866 161.104,98.2152 160.902,100.903 160.568,103.551 160.093,106.159 159.507,108.716 158.79,111.232 157.961,113.688 157.011,116.093 155.95,118.438 154.777,120.722 153.504,122.935 152.13,125.088 150.654,127.16 149.077,129.161 147.42,131.081 145.662,132.92 143.822,134.678 141.902,136.336 139.901,137.912 137.829,139.388 135.677,140.762 133.463,142.046 131.179,143.208 128.835,144.269 126.43,145.219 123.974,146.048 121.457,146.766 118.9,147.352 116.293,147.827 113.645,148.16 110.957,148.362 108.228,148.433 105.5,148.362 102.811,148.16 100.163,147.827 97.556,147.352 94.9992,146.766 92.4828,146.048 90.0269,145.219 87.6216,144.269 85.2769,143.208 82.993,142.046 80.7797,140.762 78.6271,139.388 76.5553,137.912 74.5543,136.336 72.6341,134.678 70.7948,132.92 69.0363,131.081 67.3789,129.161 65.8023,127.16 64.3268,125.088 62.9523,122.935 61.6689,120.722 60.5066,118.438 59.4455,116.093 58.4955,113.688 57.6668,111.232 56.9492,108.716 56.3631,106.159 55.8881,103.551 55.5546,100.903 55.3524,98.2152 55.2817,95.4866 55.3524,92.7579 55.5546,90.0696 55.8881,87.4218 56.3631,84.8144 56.9492,82.2576 57.6668,79.7411 58.4955,77.2853 59.4455,74.88 60.5066,72.5353 61.6689,70.2514 62.9523,68.0381 64.3268,65.8855 65.8023,63.8137 67.3789,61.8127 69.0363,59.8925 70.7948,58.0532 72.6341,56.2947 74.5543,54.6372 76.5553,53.0606 78.6271,51.5851 80.7797,50.2107 82.993,48.9373 85.2769,47.765 87.6216,46.7039 90.0269,45.7539 92.4828,44.9251 94.9992,44.2076 97.556,43.6214 100.163,43.1465 102.811,42.813 105.5,42.6108 "/>
   <polygon id="_57286632" class="fil3" points="108.228,43.9651 110.876,44.0257 113.494,44.2279 116.071,44.5613 118.607,45.0061 121.104,45.5821 123.549,46.2794 125.944,47.0879 128.279,48.0177 130.563,49.0485 132.786,50.1804 134.939,51.4234 137.031,52.7676 139.052,54.2027 141.003,55.7287 142.872,57.3457 144.661,59.0536 146.369,60.8425 147.986,62.7121 149.512,64.6626 150.947,66.6838 152.291,68.7759 153.534,70.9285 154.666,73.1519 155.697,75.4359 156.627,77.7704 157.435,80.1655 158.133,82.6112 158.709,85.1075 159.153,87.6441 159.487,90.2212 159.689,92.8388 159.75,95.4866 159.689,98.1344 159.487,100.752 159.153,103.329 158.709,105.866 158.133,108.362 157.435,110.808 156.627,113.203 155.697,115.537 154.666,117.821 153.534,120.045 152.291,122.197 150.947,124.289 149.512,126.311 147.986,128.261 146.369,130.131 144.661,131.92 142.872,133.627 141.003,135.244 139.052,136.771 137.031,138.206 134.939,139.55 132.786,140.793 130.563,141.925 128.279,142.956 125.944,143.885 123.549,144.694 121.104,145.391 118.607,145.967 116.071,146.412 113.494,146.745 110.876,146.947 108.228,147.008 105.58,146.947 102.963,146.745 100.386,146.412 97.8491,145.967 95.3528,145.391 92.9071,144.694 90.512,143.885 88.1775,142.956 85.8935,141.925 83.6701,140.793 81.5175,139.55 79.4255,138.206 77.4042,136.771 75.4537,135.244 73.5841,133.627 71.7953,131.92 70.0874,130.131 68.4703,128.261 66.9443,126.311 65.5092,124.289 64.1651,122.197 62.9221,120.045 61.7902,117.821 60.7593,115.537 59.8295,113.203 59.021,110.808 58.3237,108.362 57.7477,105.866 57.303,103.329 56.9695,100.752 56.7674,98.1344 56.7067,95.4866 56.7674,92.8388 56.9695,90.2212 57.303,87.6441 57.7477,85.1075 58.3237,82.6112 59.021,80.1655 59.8295,77.7704 60.7593,75.4359 61.7902,73.1519 62.9221,70.9285 64.1651,68.7759 65.5092,66.6838 66.9443,64.6626 68.4703,62.7121 70.0874,60.8425 71.7953,59.0536 73.5841,57.3457 75.4537,55.7287 77.4042,54.2027 79.4255,52.7676 81.5175,51.4234 83.6701,50.1804 85.8935,49.0485 88.1775,48.0177 90.512,47.0879 92.9071,46.2794 95.3528,45.5821 97.8491,45.0061 100.386,44.5613 102.963,44.2279 105.58,44.0257 "/>
   <g>
    <polygon id="_55573328" class="fil2" points="114.373,158.782 110.573,162.774 112.028,169.222 108.228,165.23 104.428,169.222 105.884,162.774 102.084,158.782 106.773,158.782 108.228,152.344 109.683,158.782 "/>
    <path id="_555733281" class="fil1" d="M110.494 162.791l0.0202 -0.0733 3.7999 -3.992 0.1168 0.1112 -3.7999 3.992 -0.137 -0.0379zm0 0l-0.0095 -0.0421 0.0297 -0.0312 -0.0202 0.0733zm1.4755 6.4857l-0.0202 -0.0379 -1.4553 -6.4478 0.1572 -0.0354 1.4553 6.4478 -0.137 0.0733zm0.137 -0.0733l0.0643 0.2847 -0.2013 -0.2114 0.137 -0.0733zm-3.9369 -4.03l0.1168 0 3.7999 3.9921 -0.1168 0.1112 -3.7999 -3.9921 0 -0.1112zm0 0l0.0584 -0.0614 0.0584 0.0614 -0.1168 0zm-3.8201 4.03l0.0202 -0.0379 3.7999 -3.9921 0.1168 0.1112 -3.7999 3.9921 -0.137 -0.0733zm0.137 0.0733l-0.2013 0.2114 0.0643 -0.2847 0.137 0.0733zm1.4553 -6.559l0.0202 0.0733 -1.4553 6.4478 -0.1572 -0.0354 1.4553 -6.4478 0.137 -0.0379zm0 0l0.0297 0.0312 -0.0095 0.0421 -0.0202 -0.0733zm-3.8584 -4.0172l0.0584 0.0252 3.8 3.992 -0.1168 0.1112 -3.8 -3.992 0.0584 -0.1364zm-0.0584 0.1364l-0.1298 -0.1364 0.1882 0 -0.0584 0.1364zm4.8263 -0.0379l-0.0786 0.0631 -4.6893 0 0 -0.1616 4.6893 0 0.0786 0.0985zm0 0l-0.0143 0.0631 -0.0643 0 0.0786 -0.0631zm1.4553 -6.473l0 0.0354 -1.4553 6.4376 -0.1572 -0.0354 1.4553 -6.4376 0.1572 0zm-0.1572 0l0.0786 -0.3477 0.0786 0.3477 -0.1572 0zm1.5338 6.5361l-0.0786 -0.0631 -1.4552 -6.4376 0.1572 -0.0354 1.4552 6.4376 -0.0786 0.0985zm0 0l-0.0643 0 -0.0143 -0.0631 0.0786 0.0631zm4.7477 -0.0252l-0.0584 0.0252 -4.6893 0 0 -0.1616 4.6893 0 0.0584 0.1364zm-0.0584 -0.1364l0.1882 0 -0.1298 0.1364 -0.0584 -0.1364z"/>
   </g>
   <polygon class="fil2 str0" points="108.228,161.672 109.683,158.782 108.228,152.344 "/>
   <polygon class="fil2" points="102.084,158.782 106.773,158.782 108.228,161.672 "/>
   <polygon class="fil2" points="110.573,162.774 114.373,158.782 108.228,161.672 "/>
   <polygon class="fil2" points="112.028,169.221 108.228,165.23 108.228,161.672 "/>
   <polygon class="fil2" points="104.428,169.221 105.884,162.774 108.228,161.672 "/>
   <polygon class="fil2" points="83.2961,165.361 84.5494,160.065 84.8222,160.156 84.7716,160.753 84.7716,161.308 84.7716,161.864 84.8222,162.319 84.8626,162.784 84.9637,163.198 85.0951,163.562 85.2365,163.936 85.378,164.209 85.56,164.492 85.7924,164.765 85.9743,164.997 86.2471,165.179 86.4796,165.321 86.803,165.452 87.0759,165.553 87.3589,165.644 87.6318,165.644 87.8642,165.684 88.1371,165.644 88.42,165.593 88.6928,165.553 88.9759,165.452 89.1982,165.361 89.4812,165.179 89.754,164.997 90.037,164.815 90.2593,164.532 90.5424,164.259 90.7748,163.976 91.0477,163.613 91.2801,163.239 91.5126,162.875 91.7348,162.41 91.9673,161.955 92.1997,161.45 92.3817,160.934 92.6141,160.389 92.796,159.782 92.9881,159.186 93.1194,158.681 93.2103,158.175 93.3519,157.66 93.4024,157.205 93.4934,156.74 93.5338,156.275 93.5338,155.861 93.5338,155.447 93.5338,155.032 93.4934,154.669 93.4428,154.295 93.3519,153.931 93.2609,153.607 93.1194,153.284 92.9881,152.961 92.8465,152.688 92.6646,152.455 92.4322,152.223 92.2503,151.991 92.0179,151.809 91.7854,151.627 91.5126,151.485 91.2295,151.394 90.9567,151.303 90.6737,151.212 90.4514,151.162 90.1684,151.162 89.936,151.162 89.663,151.212 89.4306,151.253 89.1982,151.303 88.9253,151.394 88.6928,151.526 88.42,151.667 88.1371,151.849 87.8136,152.132 87.5408,152.364 87.1769,152.688 86.8535,153.052 86.4796,153.426 86.2977,153.143 86.6211,152.688 86.9849,152.314 87.3083,151.95 87.6822,151.627 88.0057,151.303 88.3291,151.071 88.6928,150.838 89.0163,150.656 89.3397,150.515 89.7136,150.424 90.037,150.333 90.4008,150.283 90.7242,150.283 91.0881,150.333 91.462,150.373 91.8258,150.464 92.1492,150.565 92.4322,150.697 92.7556,150.838 93.0285,150.98 93.2609,151.162 93.5338,151.394 93.7662,151.576 93.9481,151.849 94.1401,152.081 94.3221,152.364 94.504,152.688 94.6454,153.001 94.7768,153.325 94.9183,153.698 95.0093,154.062 95.1002,154.436 95.2013,155.083 95.2417,155.679 95.2923,156.326 95.2417,156.973 95.2013,157.62 95.1002,158.307 94.9183,159.004 94.7364,159.742 94.5949,160.288 94.3625,160.843 94.1805,161.349 93.9481,161.864 93.6752,162.37 93.4428,162.824 93.1194,163.289 92.8465,163.704 92.5232,164.118 92.1997,164.532 91.8258,164.856 91.5126,165.179 91.1385,165.452 90.7748,165.735 90.4008,165.967 89.9865,166.149 89.6126,166.291 89.2487,166.422 88.8344,166.513 88.4604,166.564 88.0967,166.564 87.7226,166.564 87.3589,166.513 86.9849,166.422 86.712,166.331 86.4392,166.19 86.1563,166.058 85.8833,165.876 85.6509,165.684 85.4185,165.452 85.1861,165.23 84.9637,164.947 84.8222,164.815 84.7312,164.674 84.6403,164.583 84.5494,164.583 84.4483,164.532 84.3169,164.583 84.2259,164.583 84.1249,164.674 83.9935,164.815 83.852,164.997 83.7106,165.179 83.5792,165.452 "/>
   <path class="fil2" d="M74.2612 161.308l-0.2325 -0.1414 -0.2324 -0.1415 -0.2325 -0.182 -0.1818 -0.1414 -0.1819 -0.1819 -0.182 -0.2324 -0.1414 -0.182 -0.1415 -0.2325 -0.1314 -0.2728 -0.1415 -0.2325 -0.0909 -0.2728 -0.091 -0.283 -0.091 -0.3234 -0.1011 -0.3133 -0.0404 -0.3234 -0.0505 -0.3234 -0.0404 -0.3739 0 -0.3638 0 -0.374 0 -0.3234 0.0404 -0.3638 0.0505 -0.3739 0.0404 -0.3639 0.1011 -0.3739 0.0405 -0.3638 0.1415 -0.4143 0.0909 -0.3739 0.1415 -0.3639 0.1314 -0.3739 0.1919 -0.4144 0.182 -0.3638 0.1819 -0.4244 0.2324 -0.3639 0.182 -0.4143 0.2324 -0.374 0.2325 -0.3233 0.2324 -0.3639 0.2729 -0.3234 0.2324 -0.3233 0.2729 -0.273 0.2324 -0.2829 0.2729 -0.2729 0.2829 -0.2324 0.2729 -0.2729 0.3234 -0.2324 0.2729 -0.182 0.3234 -0.2324 0.2829 -0.1415 0.3235 -0.1819 0.3234 -0.1415 0.2728 -0.1313 0.3234 -0.1011 0.2729 -0.091 0.3234 -0.091 0.283 -0.0404 0.2728 -0.0505 0.2729 0 0.283 0 0.2729 0.0505 0.2829 0 0.2729 0.091 0.2324 0.0909 0.2729 0.091 0.2324 0.091 0.2729 0.1414 0.2324 0.1819 0.2325 0.1416 0.1819 0.1818 0.1819 0.182 0.192 0.2324 0.1819 0.1819 0.1416 0.2325 0.1314 0.2728 0.1414 0.2325 0.091 0.2829 0.0909 0.3234 0.091 0.2729 0.101 0.3234 0.0404 0.3234 0.0506 0.3234 0.0404 0.3638 0 0.3739 0 0.3639 0 0.3234 -0.0404 0.3739 -0.0506 0.3639 -0.0404 0.4143 -0.101 0.3739 -0.091 0.3638 -0.0909 0.3739 -0.1416 0.4144 -0.1313 0.3639 -0.1819 0.4143 -0.1415 0.4245 -0.1819 0.4143 -0.2325 0.4143 -0.2324 0.4144 -0.2325 0.3639 -0.2324 0.4143 -0.2223 0.3739 -0.2325 0.3234 -0.283 0.3235 -0.2728 0.3233 -0.2729 0.3234 -0.2829 0.2729 -0.2729 0.2728 -0.283 0.2325 -0.3133 0.2324 -0.3234 0.2325 -0.3234 0.2324 -0.3234 0.1819 -0.3234 0.182 -0.2829 0.091 -0.2729 0.1414 -0.2729 0.091 -0.3234 0.0909 -0.283 0.091 -0.2728 0.0505 -0.2325 0 -0.2728 0.0405 -0.283 0 -0.2729 -0.0405 -0.2325 0 -0.2728 -0.0505 -0.2325 -0.091 -0.2728 -0.0404 -0.2325 -0.1415 -0.2324 -0.091zm0.5053 -0.6973l0.1819 0.0506 0.1415 0.0909 0.1819 0.0505 0.192 0.0404 0.182 0 0.1415 0.0506 0.1818 0 0.182 -0.0506 0.1819 0 0.192 -0.0404 0.1819 -0.0505 0.1819 -0.0909 0.1819 -0.0506 0.1921 -0.0909 0.1818 -0.1314 0.182 -0.101 0.2324 -0.182 0.2325 -0.1819 0.2223 -0.1819 0.2324 -0.2325 0.2325 -0.2324 0.2324 -0.2325 0.2325 -0.2728 0.2324 -0.283 0.2224 -0.2728 0.2324 -0.3235 0.2325 -0.3234 0.2324 -0.3638 0.1819 -0.3739 0.2324 -0.3639 0.2325 -0.4143 0.2324 -0.4143 0.1819 -0.4245 0.2325 -0.4143 0.1819 -0.4144 0.1415 -0.4143 0.1819 -0.4144 0.1313 -0.3638 0.1415 -0.374 0.091 -0.3638 0.091 -0.374 0.101 -0.3637 0.091 -0.3234 0.0404 -0.3739 0.0505 -0.3235 0.0405 -0.3234 0 -0.3233 0 -0.2729 -0.0405 -0.4649 -0.0909 -0.4144 -0.091 -0.3638 -0.1414 -0.3234 -0.182 -0.2728 -0.2324 -0.2831 -0.283 -0.1818 -0.3234 -0.182 -0.1314 -0.0909 -0.1819 -0.101 -0.192 -0.0405 -0.1819 -0.0505 -0.1819 0 -0.1819 0 -0.1921 0 -0.1818 0 -0.2325 0.0505 -0.1819 0.0405 -0.1819 0.0504 -0.2325 0.091 -0.1819 0.0505 -0.2325 0.1314 -0.1818 0.091 -0.2325 0.1414 -0.192 0.1415 -0.2223 0.182 -0.2325 0.1818 -0.1819 0.1921 -0.2325 0.2224 -0.1818 0.2324 -0.2325 0.2325 -0.2324 0.2728 -0.1819 0.2829 -0.2325 0.3235 -0.2324 0.3233 -0.182 0.3234 -0.2324 0.3639 -0.2325 0.3739 -0.1818 0.4144 -0.2325 0.4143 -0.2324 0.4143 -0.1819 0.4549 -0.2325 0.4244 -0.1313 0.4144 -0.1921 0.4143 -0.1314 0.4144 -0.1414 0.3638 -0.1415 0.3739 -0.091 0.3639 -0.091 0.3739 -0.0909 0.3233 -0.0505 0.3639 -0.0404 0.3234 0 0.3234 -0.0506 0.2729 0 0.2829 0.0506 0.4548 0.0909 0.4245 0.0909 0.3638 0.182 0.3234 0.1819 0.3234 0.283 0.2325 0.2728 0.2324 0.3234 0.2223z"/>
   <polygon class="fil2" points="66.7017,157.114 64.347,155.265 66.7927,141.429 60.8401,148.807 60.6582,149.09 60.4258,149.363 60.2843,149.595 60.1529,149.828 60.0115,150.01 59.9205,150.151 59.8699,150.333 59.8699,150.424 59.8295,150.565 59.8699,150.697 59.8699,150.838 59.9205,150.98 59.9609,151.111 60.062,151.212 60.1529,151.303 60.2843,151.435 60.5673,151.667 60.2843,151.991 57.2928,149.595 57.5658,149.272 57.8891,149.504 58.0306,149.595 58.162,149.686 58.3035,149.727 58.445,149.777 58.5865,149.777 58.7684,149.727 58.8997,149.686 59.0413,149.636 59.1322,149.595 59.2737,149.504 59.4152,149.363 59.5466,149.221 59.7386,149.04 59.9205,148.858 60.1024,148.625 60.2843,148.352 68.9555,137.559 69.1879,137.741 66.6007,152.637 72.9271,144.704 73.1495,144.431 73.3416,144.199 73.4729,143.926 73.6144,143.734 73.7559,143.552 73.8469,143.37 73.8873,143.228 73.9378,143.087 73.9378,142.956 73.9378,142.814 73.8873,142.673 73.8469,142.582 73.7963,142.45 73.7054,142.309 73.6144,142.218 73.4729,142.127 73.2001,141.894 73.4729,141.52 76.4744,143.926 76.2016,144.29 75.8782,144.017 75.7367,143.926 75.5952,143.875 75.4638,143.784 75.3224,143.784 75.1809,143.784 75.0495,143.784 74.8575,143.825 74.7261,143.926 74.625,143.966 74.4936,144.057 74.3522,144.148 74.2107,144.29 74.0287,144.471 73.8873,144.704 73.6649,144.886 73.4729,145.169 66.3278,154.062 66.3278,154.295 66.2874,154.527 66.2874,154.709 66.2369,154.901 66.2369,155.032 66.2369,155.174 66.2369,155.315 66.2369,155.406 66.2369,155.588 66.3278,155.77 66.3784,156.003 66.5098,156.235 66.5602,156.376 66.6512,156.508 66.7927,156.649 66.9747,156.791 "/>
   <polygon class="fil2" points="47.4696,138.246 47.8335,137.973 48.0659,138.115 48.2984,138.206 48.4398,138.246 48.5712,138.297 48.6622,138.297 48.8037,138.297 48.9855,138.246 49.218,138.246 49.4,138.206 49.6324,138.115 49.8648,138.064 50.1377,137.973 50.4206,137.832 50.6935,137.741 63.8417,131.839 64.0236,132.071 55.8173,144.239 55.6759,144.471 55.5344,144.663 55.4434,144.845 55.3524,144.977 55.2616,145.118 55.1706,145.26 55.12,145.351 55.12,145.442 55.0291,145.624 54.9887,145.815 54.9887,145.998 54.9887,146.179 54.9887,146.361 55.0796,146.553 55.1706,146.776 55.2616,146.968 54.9381,147.241 52.0376,143.784 52.4014,143.501 52.543,143.602 52.6743,143.734 52.8159,143.825 52.9067,143.875 53.0483,143.926 53.1392,143.966 53.2302,144.017 53.3212,144.017 53.5132,144.017 53.6951,143.966 53.8365,143.875 54.0185,143.734 54.1499,143.643 54.2509,143.501 54.3823,143.37 54.5743,143.188 54.7057,142.996 54.8876,142.763 55.0291,142.541 55.211,142.258 60.7997,134.001 51.8457,138.013 51.5222,138.155 51.2494,138.297 51.0169,138.438 50.7845,138.529 50.5621,138.66 50.3702,138.751 50.2388,138.852 50.1377,138.943 50.0063,139.075 49.9153,139.216 49.8244,139.358 49.7739,139.54 49.7233,139.772 49.7739,139.954 49.8244,140.186 49.9153,140.459 49.9557,140.51 50.0063,140.601 49.6324,140.874 "/>
   <polygon class="fil2" points="44.9734,132.213 50.7441,129.029 49.5414,126.907 49.4504,126.725 49.309,126.533 49.218,126.402 49.0866,126.26 48.9451,126.169 48.8542,126.119 48.7127,126.028 48.5712,126.028 48.3893,125.987 48.2074,126.028 47.9749,126.028 47.7425,126.119 47.4696,126.169 47.1867,126.3 46.9138,126.402 46.5904,126.583 46.4489,126.3 51.5222,123.491 51.7143,123.764 51.4312,123.905 51.2494,124.087 51.0169,124.229 50.8755,124.37 50.7441,124.461 50.6026,124.552 50.5116,124.643 50.4206,124.734 50.2792,124.876 50.1882,125.057 50.0972,125.249 50.0467,125.472 50.0467,125.563 50.0467,125.664 50.0972,125.795 50.0972,125.937 50.1377,126.078 50.1882,126.21 50.2792,126.351 50.3702,126.492 51.5222,128.615 56.3226,125.987 56.5551,125.846 56.7875,125.704 56.9695,125.613 57.1009,125.522 57.2424,125.431 57.3333,125.381 57.4242,125.29 57.4748,125.249 57.5658,125.148 57.6163,125.057 57.6567,124.966 57.7072,124.876 57.7072,124.734 57.7072,124.603 57.6163,124.461 57.5253,124.279 56.6461,122.612 56.5046,122.43 56.4136,122.248 56.3226,122.066 56.1812,121.924 56.0902,121.783 55.9993,121.692 55.9083,121.601 55.8173,121.51 55.5849,121.419 55.3524,121.278 55.0796,121.237 54.7563,121.187 54.4732,121.187 54.2509,121.187 53.9679,121.187 53.6445,121.187 53.3212,121.237 52.9573,121.278 52.5834,121.328 52.2196,121.369 52.0781,121.096 56.1812,119.893 60.2843,127.362 59.8699,127.594 59.6881,127.271 59.5971,127.089 59.4556,126.947 59.2737,126.856 59.0918,126.725 58.9503,126.674 58.7684,126.674 58.5865,126.674 58.3944,126.725 58.3035,126.765 58.162,126.816 58.0306,126.856 57.8487,126.947 57.6567,127.038 57.4242,127.139 57.2019,127.271 56.9695,127.412 47.4696,132.627 47.1462,132.809 46.8229,132.991 46.5904,133.132 46.358,133.314 46.176,133.456 46.0345,133.547 45.9032,133.688 45.8527,133.779 45.7617,133.87 45.7617,134.001 45.7111,134.143 45.7111,134.284 45.7111,134.426 45.7617,134.557 45.8122,134.699 45.9032,134.84 46.0851,135.204 45.6707,135.436 41.5676,127.968 44.7005,126.078 44.8825,126.351 44.6096,126.533 44.3772,126.725 44.1447,126.907 43.9628,127.038 43.8213,127.18 43.6899,127.321 43.5484,127.463 43.4575,127.554 43.316,127.776 43.225,128.008 43.134,128.241 43.0835,128.473 43.0835,128.564 43.134,128.655 43.1745,128.797 43.1745,128.938 43.2756,129.07 43.316,129.211 43.407,129.393 43.4979,129.575 "/>
   <polygon class="fil2" points="39.9001,124.643 38.9804,121.834 48.5308,111.545 39.5363,114.496 39.2128,114.638 38.8895,114.729 38.6166,114.82 38.3842,114.961 38.2022,115.052 38.0102,115.143 37.9193,115.234 37.8283,115.325 37.7373,115.426 37.6464,115.558 37.5959,115.699 37.5959,115.79 37.5555,115.932 37.5555,116.063 37.5959,116.204 37.6464,116.386 37.7373,116.76 37.323,116.902 36.1204,113.253 36.5347,113.112 36.6762,113.486 36.7267,113.627 36.8177,113.759 36.9086,113.9 36.9996,113.991 37.141,114.082 37.2724,114.133 37.414,114.173 37.5959,114.224 37.6868,114.224 37.8283,114.224 38.0102,114.173 38.2426,114.133 38.4751,114.082 38.7075,113.991 38.9804,113.951 39.3038,113.809 52.452,109.474 52.543,109.747 42.3054,120.813 51.8961,117.639 52.2196,117.538 52.543,117.407 52.7754,117.316 52.9977,117.225 53.2302,117.124 53.3716,117.033 53.5132,116.942 53.6041,116.851 53.6951,116.71 53.7355,116.619 53.7861,116.487 53.8365,116.346 53.8365,116.204 53.8365,116.063 53.8365,115.932 53.7861,115.79 53.6445,115.426 54.1094,115.285 55.312,118.923 54.8876,119.064 54.7563,118.701 54.7057,118.559 54.6147,118.418 54.5238,118.276 54.4328,118.185 54.2914,118.094 54.1499,118.003 54.0185,117.963 53.8365,117.963 53.6951,117.963 53.5536,117.963 53.3716,117.963 53.1898,118.003 52.9573,118.054 52.6743,118.145 52.4014,118.236 52.1286,118.327 41.2846,121.924 41.1027,122.106 40.9613,122.248 40.8703,122.389 40.7389,122.521 40.6378,122.662 40.5469,122.753 40.5065,122.844 40.4559,122.935 40.365,123.127 40.3246,123.309 40.274,123.541 40.2235,123.814 40.2235,123.956 40.2235,124.087 40.274,124.32 40.3246,124.501 "/>
   <polygon class="fil2" points="34.3214,100.712 50.7845,105.876 50.1882,101.399 50.1377,101.176 50.0972,100.944 50.0063,100.712 49.9153,100.53 49.7739,100.338 49.6324,100.156 49.501,100.024 49.309,99.8828 49.0866,99.7918 48.8542,99.7009 48.5308,99.5998 48.2074,99.5089 47.8335,99.4179 47.3787,99.3775 46.9138,99.3269 46.4085,99.2865 46.4489,99.0036 50.8755,98.9631 52.0376,107.857 51.6132,107.948 35.5747,102.874 36.0294,106.381 36.08,106.563 36.1204,106.796 36.1709,106.937 36.2113,107.119 36.2618,107.26 36.3528,107.402 36.4033,107.493 36.4943,107.584 36.6762,107.766 36.9086,107.907 37.141,107.998 37.414,108.089 37.5555,108.14 37.7373,108.14 37.9698,108.18 38.2022,108.18 38.4751,108.18 38.7985,108.18 39.1219,108.18 39.4857,108.18 39.5363,108.503 35.3422,108.827 "/>
   <polygon class="fil2" points="50.5116,92.552 50.9765,92.552 50.9765,97.2514 50.5116,97.2514 50.5116,96.8876 50.5116,96.6956 50.461,96.5642 50.4206,96.4228 50.3702,96.2812 50.2792,96.1498 50.1377,96.0488 50.0467,95.9579 49.9153,95.8669 49.7739,95.8265 49.6324,95.7759 49.4504,95.7759 49.218,95.7254 48.9855,95.685 48.6622,95.685 48.3489,95.685 48.0255,95.685 37.232,95.6344 36.9086,95.6344 36.6257,95.6344 36.4033,95.6344 36.1709,95.6344 35.989,95.685 35.7969,95.685 35.6655,95.685 35.5747,95.7254 35.4331,95.7759 35.2916,95.8669 35.1502,95.9579 35.0188,96.0488 34.8773,96.2408 34.7863,96.4228 34.7358,96.6046 34.7358,96.7866 34.7358,97.2009 34.281,97.2009 34.281,92.4611 34.7358,92.4611 34.7358,92.8755 34.7358,93.0069 34.7863,93.1988 34.8369,93.3302 34.8773,93.4212 34.9683,93.5626 35.0592,93.6536 35.2007,93.7446 35.3422,93.8355 35.4736,93.8861 35.6151,93.9366 35.7969,93.9771 36.0294,94.0275 36.2618,94.0275 36.5347,94.0679 36.8581,94.0679 37.232,94.0679 48.0255,94.1185 48.2984,94.1185 48.5712,94.1185 48.8542,94.1185 49.0866,94.0679 49.2686,94.0679 49.4504,94.0679 49.5919,94.0275 49.6829,94.0275 49.8244,93.9771 49.9557,93.8861 50.0972,93.7951 50.2388,93.6536 50.3297,93.4717 50.4206,93.3302 50.5116,93.0977 50.5116,92.9159 "/>
   <path class="fil2" d="M35.1502 84.5213l0.0505 -0.2223 0.0505 -0.283 0.091 -0.2324 0.0909 -0.2729 0.1416 -0.2324 0.1313 -0.2325 0.1415 -0.1819 0.1819 -0.2324 0.1819 -0.182 0.192 -0.2324 0.2224 -0.1819 0.2324 -0.1819 0.2829 -0.192 0.273 -0.1314 0.2728 -0.192 0.3234 -0.1314 0.3234 -0.1415 0.3234 -0.1415 0.374 -0.1313 0.3234 -0.091 0.3637 -0.1011 0.374 -0.0404 0.3638 -0.091 0.374 -0.0505 0.3638 -0.0405 0.4143 0 0.374 0 0.4143 0 0.4144 0 0.4143 0.0405 0.4144 0.0505 0.4648 0.0404 0.8692 0.1921 0.8388 0.1819 0.7782 0.2324 0.7378 0.3234 0.6973 0.3235 0.6367 0.3638 0.6064 0.4143 0.5558 0.4649 0.2223 0.2325 0.2325 0.2728 0.2324 0.2325 0.1819 0.2324 0.182 0.2729 0.1919 0.2324 0.1314 0.2729 0.1416 0.2324 0.0908 0.2729 0.091 0.283 0.0506 0.2728 0.0404 0.2325 0.0505 0.2728 0 0.283 -0.0505 0.2729 0 0.2729 -0.0404 0.2829 -0.091 0.2729 -0.091 0.283 -0.0909 0.2223 -0.1415 0.283 -0.1415 0.2324 -0.1414 0.2223 -0.182 0.1921 -0.1819 0.2223 -0.1819 0.1921 -0.2325 0.1818 -0.2324 0.1819 -0.2729 0.182 -0.2829 0.192 -0.2729 0.1314 -0.3234 0.192 -0.3234 0.1313 -0.3234 0.1415 -0.3638 0.091 -0.3234 0.091 -0.374 0.091 -0.3638 0.101 -0.3739 0.0404 -0.3638 0.0505 -0.4144 0.0405 -0.4144 0 -0.3739 0 -0.4649 0 -0.4143 0 -0.4143 -0.0405 -0.4548 -0.0505 -0.4649 -0.091 -0.4649 -0.0504 -0.4548 -0.091 -0.4144 -0.091 -0.4143 -0.1415 -0.4143 -0.1314 -0.4245 -0.1414 -0.3638 -0.1415 -0.374 -0.1314 -0.3638 -0.192 -0.3739 -0.182 -0.3134 -0.2324 -0.3233 -0.1819 -0.3234 -0.2325 -0.283 -0.2223 -0.2729 -0.2324 -0.2829 -0.283 -0.2224 -0.2224 -0.192 -0.2324 -0.1819 -0.2324 -0.1819 -0.2729 -0.1415 -0.2325 -0.1313 -0.2324 -0.1416 -0.2324 -0.0909 -0.2729 -0.091 -0.2325 -0.0505 -0.2829 -0.0505 -0.2224 -0.0404 -0.2829 0 -0.2729 -0.0506 -0.2324 0.0506 -0.2729 0.0404 -0.283zm0.7883 0.283l0 0.1819 0 0.1819 0 0.1819 0 0.1921 0.0505 0.1819 0.0404 0.1414 0.0506 0.182 0.0909 0.1415 0.0404 0.1818 0.1011 0.1416 0.1314 0.1819 0.0909 0.1313 0.1415 0.1415 0.1819 0.1415 0.1415 0.1415 0.1819 0.1819 0.2325 0.1415 0.2324 0.1819 0.2729 0.1314 0.2829 0.192 0.2729 0.1314 0.3234 0.1415 0.3234 0.1415 0.3234 0.091 0.3638 0.1414 0.3739 0.091 0.3639 0.1313 0.4144 0.1011 0.4143 0.091 0.4245 0.0909 0.4547 0.091 0.4649 0.0404 0.4548 0.1011 0.5154 0.0404 0.4143 0.0506 0.4548 0.0404 0.4144 0 0.4144 0 0.4244 0.0505 0.3638 -0.0505 0.374 0 0.3638 -0.0404 0.374 -0.0506 0.3132 -0.0404 0.3235 -0.0506 0.3233 -0.0909 0.3234 -0.091 0.283 -0.0909 0.1819 -0.091 0.2325 -0.1011 0.1818 -0.0909 0.1415 -0.091 0.182 -0.0909 0.1414 -0.1415 0.1314 -0.091 0.1415 -0.1314 0.091 -0.1414 0.1414 -0.1415 0.091 -0.1415 0.0505 -0.1819 0.091 -0.1314 0.0404 -0.192 0.0506 -0.1314 0.0404 -0.192 0 -0.1819 0 -0.1819 0 -0.1819 0 -0.1921 -0.0404 -0.1819 -0.0506 -0.1819 -0.0404 -0.1819 -0.091 -0.192 -0.1011 -0.182 -0.0908 -0.1818 -0.1314 -0.1415 -0.1416 -0.182 -0.1415 -0.1818 -0.1818 -0.1415 -0.1415 -0.182 -0.2324 -0.1414 -0.182 -0.1415 -0.2325 -0.182 -0.2222 -0.1414 -0.2831 -0.1314 -0.2324 -0.1415 -0.3233 -0.091 -0.273 -0.1414 -0.3233 -0.1415 -0.3639 -0.091 -0.3739 -0.091 -0.3638 -0.1313 -0.3739 -0.1011 -0.4144 -0.0909 -0.4144 -0.0404 -0.4649 -0.091 -0.4548 -0.1011 -0.5053 -0.0404 -0.4649 -0.0505 -0.4648 -0.091 -0.4548 0 -0.4649 -0.0404 -0.4143 0 -0.4144 0 -0.3739 0 -0.3639 0 -0.3739 0.0404 -0.3638 0.0506 -0.3234 0.0404 -0.3234 0.0505 -0.3234 0.0909 -0.2729 0.0506 -0.2829 0.091 -0.2325 0.0909 -0.1819 0.091 -0.1819 0.0909 -0.182 0.1415 -0.1414 0.091 -0.1819 0.1415 -0.1415 0.1313 -0.0909 0.091 -0.1415 0.192 -0.091 0.1314 -0.091 0.1414 -0.0909 0.182 -0.1415 0.3234 -0.0909 0.3739z"/>
   <polygon class="fil2" points="36.6762,76.0422 37.7373,73.2226 51.6132,71.1104 42.7197,67.8764 42.3963,67.7349 42.0729,67.6439 41.8001,67.553 41.5676,67.5126 41.3352,67.4621 41.1532,67.4115 41.0118,67.4115 40.8703,67.4115 40.7389,67.4621 40.5974,67.5126 40.5065,67.6035 40.365,67.6439 40.274,67.7854 40.183,67.8764 40.1325,68.0179 40.0416,68.1493 39.9506,68.5232 39.5363,68.3413 40.8299,64.7434 41.2442,64.8748 41.1027,65.2488 41.0623,65.4307 41.0623,65.5722 41.0623,65.7541 41.0623,65.8956 41.1027,66.0371 41.1532,66.1684 41.2442,66.3099 41.3756,66.4009 41.4767,66.4919 41.5676,66.5828 41.7495,66.6738 41.9315,66.7748 42.1133,66.8658 42.3963,66.9567 42.6692,67.0982 42.9522,67.1891 55.9487,71.9391 55.8578,72.2119 40.9208,74.5161 50.4206,77.9725 50.7441,78.114 51.0674,78.205 51.3404,78.2959 51.6132,78.3465 51.8052,78.3869 51.9871,78.4374 52.169,78.4374 52.26,78.4374 52.4014,78.3869 52.543,78.3465 52.6743,78.2959 52.7754,78.205 52.8663,78.114 52.9573,77.9725 52.9977,77.8816 53.0887,77.6996 53.2302,77.3763 53.6445,77.5177 52.3106,81.1155 51.8961,80.974 52.0376,80.6001 52.0781,80.4182 52.0781,80.2869 52.1286,80.1453 52.0781,80.0038 52.0376,79.822 51.9871,79.731 51.8961,79.5895 51.7547,79.448 51.7143,79.3571 51.5728,79.2661 51.4312,79.1751 51.2494,79.0842 51.0169,78.9932 50.7845,78.9022 50.5116,78.8114 50.1882,78.6698 39.4453,74.7486 39.2634,74.7992 39.031,74.8396 38.849,74.8396 38.657,74.8901 38.5257,74.9306 38.3842,74.981 38.2932,75.0214 38.2022,75.0214 38.0102,75.1124 37.8283,75.2539 37.6464,75.3955 37.4645,75.5773 37.3735,75.6683 37.2724,75.8098 37.1815,75.9916 37.141,76.1736 "/>
   <polygon class="fil2" points="44.842,59.4882 50.461,62.894 51.7143,60.8222 51.8457,60.6404 51.9365,60.4483 51.9871,60.2665 52.0376,60.0845 52.0781,59.943 52.0781,59.8116 52.0376,59.6702 52.0376,59.5287 51.9365,59.3467 51.8052,59.2053 51.6637,59.0233 51.5222,58.8414 51.2999,58.6494 51.1079,58.4675 50.835,58.2856 50.5621,58.1037 50.6935,57.8208 55.6759,60.8222 55.5344,61.0951 55.2616,60.9637 55.0291,60.8626 54.7967,60.7718 54.6147,60.6808 54.4328,60.5898 54.2914,60.5494 54.1499,60.4989 54.0589,60.4989 53.8365,60.4483 53.6445,60.4483 53.4121,60.4989 53.2302,60.5494 53.1392,60.5898 53.0483,60.6404 52.9573,60.7313 52.8663,60.8222 52.7754,60.9132 52.6743,61.0547 52.5834,61.1457 52.4924,61.2871 51.2494,63.3589 55.9487,66.2189 56.1812,66.3503 56.3631,66.4919 56.5551,66.5828 56.6865,66.6738 56.828,66.7243 56.9695,66.8152 57.0604,66.8152 57.1009,66.8658 57.2424,66.9062 57.3333,66.9062 57.4748,66.9062 57.5658,66.8658 57.6567,66.8152 57.7982,66.7243 57.8891,66.5828 58.0306,66.4009 59.0008,64.7839 59.0918,64.602 59.1827,64.4201 59.2737,64.2381 59.3646,64.0967 59.4152,63.9552 59.4556,63.7732 59.5062,63.6823 59.5062,63.5408 59.5062,63.3084 59.5062,63.0355 59.4152,62.7626 59.2737,62.4393 59.1827,62.2473 59.0413,62.0249 58.8997,61.742 58.7179,61.5095 58.536,61.2366 58.3035,60.9637 58.1216,60.6808 57.8487,60.3573 58.0306,60.0845 61.113,63.0861 56.6865,70.3625 56.3226,70.1402 56.5046,69.7662 56.5956,69.6247 56.6461,69.4025 56.6461,69.2104 56.6461,68.9881 56.5956,68.8466 56.5551,68.7051 56.4642,68.5232 56.3226,68.3817 56.2318,68.2907 56.1408,68.2503 55.9993,68.1493 55.8578,68.0179 55.6759,67.9269 55.494,67.7854 55.2616,67.6439 54.9887,67.4621 45.7111,61.8834 45.3878,61.7015 45.1149,61.5095 44.842,61.3781 44.6096,61.2366 44.3772,61.1457 44.1952,61.0951 44.0537,61.0547 43.9628,61.0547 43.8213,61.0547 43.6899,61.0951 43.5484,61.0951 43.407,61.1861 43.316,61.2871 43.225,61.3781 43.0835,61.4691 42.9926,61.6106 42.8107,61.9744 42.4368,61.742 46.8229,54.4553 50.0063,56.2139 49.8648,56.4867 49.5414,56.3452 49.309,56.2543 49.0361,56.1633 48.8037,56.0723 48.6217,56.0218 48.4398,55.9308 48.2478,55.8904 48.1164,55.8904 47.8335,55.8399 47.601,55.8904 47.3787,55.9308 47.1462,56.0218 47.0553,56.0723 46.9643,56.1633 46.9138,56.2543 46.8229,56.3452 46.6813,56.4361 46.5904,56.5776 46.4994,56.7596 46.4085,56.901 "/>
   <path class="fil2" d="M64.1145 58.8818l-0.3233 -0.3233 0.3233 -0.2729 0.091 -0.1415 0.091 -0.1314 0.0909 -0.1415 0.0506 -0.1414 0 -0.1314 0 -0.1921 -0.0506 -0.1314 -0.0404 -0.1919 -0.0505 -0.091 -0.091 -0.1314 -0.091 -0.192 -0.1414 -0.1314 -0.1314 -0.192 -0.192 -0.2223 -0.2223 -0.2325 -0.2325 -0.2324 -7.519 -7.7009 -0.2729 -0.2831 -0.2324 -0.2222 -0.2325 -0.1921 -0.1818 -0.1819 -0.182 -0.1415 -0.192 -0.0909 -0.1314 -0.091 -0.101 -0.0404 -0.1314 0 -0.182 -0.0506 -0.1414 0 -0.1415 0.0506 -0.091 0.0404 -0.1414 0.0505 -0.1314 0.091 -0.1011 0.091 -0.3133 0.2728 -0.283 -0.3234 3.1835 -3.1329 0.4649 -0.4144 0.4143 -0.3637 0.4144 -0.3235 0.4143 -0.283 0.4144 -0.2324 0.4144 -0.1819 0.3739 -0.1314 0.4143 -0.1011 0.3638 -0.0404 0.4144 0 0.3739 0 0.4548 0.0404 0.4144 0.1011 0.4649 0.1314 0.4649 0.1414 0.5053 0.182 0.4547 0.2829 0.5155 0.2224 0.4547 0.3234 0.4649 0.3234 0.4649 0.3234 0.4548 0.4143 0.4649 0.4144 0.4547 0.4649 0.3235 0.2729 0.2829 0.3233 0.2728 0.3235 0.2325 0.3234 0.2324 0.3233 0.2325 0.2729 0.2224 0.3234 0.192 0.3234 0.1819 0.3234 0.1818 0.3234 0.1416 0.3234 0.1415 0.3234 0.1314 0.3234 0.1414 0.3739 0.091 0.3134 0.0909 0.3233 0.0506 0.3739 0.0404 0.3639 0.0506 0.3739 0 0.3234 0 0.3638 -0.0506 0.3235 -0.091 0.3233 -0.0909 0.3234 -0.091 0.3235 -0.1414 0.3233 -0.1314 0.3234 -0.1921 0.3235 -0.2324 0.2728 -0.2223 0.3234 -0.2324 0.283 -0.2831 0.2728 -3.5473 3.4563zm1.4351 -3.0824l0.2224 -0.101 0.2325 -0.1314 0.2324 -0.0909 0.1819 -0.1415 0.1819 -0.1415 0.1415 -0.091 0.1415 -0.1415 0.1414 -0.1314 0.182 -0.1414 0.1313 -0.1819 0.1416 -0.182 0.0908 -0.192 0.091 -0.2324 0.1011 -0.1819 0.091 -0.2325 0.0404 -0.2223 0.0506 -0.2325 0.0404 -0.2324 0 -0.2324 0 -0.2729 0 -0.2324 0 -0.2729 -0.0404 -0.283 -0.091 -0.2728 -0.0506 -0.283 -0.0909 -0.3133 -0.091 -0.283 -0.1414 -0.2729 -0.1416 -0.3233 -0.1313 -0.283 -0.1416 -0.3234 -0.1818 -0.2729 -0.182 -0.2729 -0.2324 -0.3233 -0.1819 -0.283 -0.2325 -0.3235 -0.2829 -0.3132 -0.2224 -0.283 -0.2829 -0.3234 -0.3234 -0.2728 -0.2729 -0.3235 -0.3234 -0.2728 -0.2729 -0.283 -0.3234 -0.2729 -0.2829 -0.2324 -0.3234 -0.2324 -0.2729 -0.182 -0.2829 -0.2324 -0.3134 -0.1415 -0.2829 -0.1819 -0.2729 -0.1415 -0.3234 -0.1314 -0.283 -0.1415 -0.2729 -0.091 -0.3233 -0.0908 -0.2729 -0.091 -0.283 -0.0506 -0.2728 -0.0404 -0.2729 -0.0505 -0.2325 0 -0.283 0 -0.2223 0 -0.2324 0.0505 -0.2324 0 -0.2325 0.091 -0.2324 0.0404 -0.2224 0.091 -0.192 0.1414 -0.2324 0.091 -0.182 0.1415 -0.1818 0.1414 -0.182 0.182 -0.0909 0.1314 -0.1416 0.1415 -0.1414 0.1414 -0.091 0.182 -0.1415 0.1819 -0.0909 0.192 -0.1314 0.2223 -0.101 0.2324 9.9242 10.1062z"/>
   <polygon class="fil2" points="76.5654,47.5427 76.8383,47.9065 73.0181,50.6756 72.7352,50.3118 73.0585,50.0793 73.2001,49.9379 73.291,49.8469 73.382,49.7054 73.4325,49.6144 73.4729,49.473 73.5234,49.2911 73.5234,49.1496 73.5234,49.0182 73.4729,48.8767 73.4325,48.7352 73.3416,48.5533 73.2506,48.3714 73.1091,48.1389 72.9676,47.9065 72.7857,47.6336 72.5532,47.3608 66.3278,38.5482 66.1459,38.3157 65.964,38.0833 65.8225,37.9014 65.681,37.7194 65.5496,37.578 65.4486,37.4365 65.3576,37.3455 65.2667,37.2545 65.1252,37.1636 64.9938,37.1232 64.8523,37.0727 64.6704,37.0221 64.438,37.0221 64.256,37.0727 64.0741,37.1232 63.8821,37.2141 63.5588,37.4365 63.3263,37.0727 67.1565,34.3541 67.4395,34.7179 67.1161,34.9503 66.9747,35.0413 66.8837,35.1323 66.7927,35.2737 66.7422,35.4152 66.7017,35.5466 66.6512,35.6881 66.6512,35.8296 66.6512,36.0115 66.7017,36.1025 66.7422,36.2439 66.8331,36.4258 66.9241,36.6078 67.0655,36.8402 67.2071,37.1232 67.389,37.3455 67.5708,37.669 73.8469,46.431 74.0287,46.6634 74.1703,46.8959 74.3522,47.0778 74.4936,47.2597 74.5846,47.4012 74.7261,47.5427 74.8171,47.6336 74.908,47.7246 75.0495,47.8156 75.1809,47.9065 75.3224,47.9571 75.5042,47.9571 75.6862,47.9571 75.9186,47.9571 76.1005,47.8661 76.242,47.7751 "/>
   <polygon class="fil2" points="82.8414,26.3298 85.0547,30.8472 84.8222,30.9887 84.4988,30.6148 84.2259,30.251 83.943,29.9275 83.7106,29.6446 83.4376,29.3717 83.1648,29.1898 82.9323,28.9573 82.6494,28.8159 82.4674,28.6744 82.2855,28.5834 82.1037,28.543 81.9621,28.452 81.7802,28.4015 81.5882,28.3611 81.4063,28.3106 81.2244,28.3106 81.0425,28.26 80.8504,28.26 80.6686,28.3106 80.4866,28.3106 80.3451,28.3611 80.1633,28.4015 79.9813,28.452 79.7994,28.543 79.567,28.634 79.3345,28.7755 79.1526,28.9068 78.9201,29.0483 78.7787,29.2302 78.5968,29.4222 78.4553,29.6042 78.3138,29.8366 78.1824,30.0185 78.0915,30.2914 78.0005,30.5238 77.95,30.7967 77.859,31.0797 77.8085,31.3525 77.8085,31.676 77.7681,31.9993 77.8085,32.5552 77.8085,33.1515 77.8994,33.7477 78.0409,34.3541 78.1824,34.9503 78.3643,35.5466 78.5968,36.1934 78.8292,36.8402 79.0515,37.3455 79.284,37.8609 79.567,38.3157 79.8398,38.7806 80.1127,39.1949 80.3957,39.6093 80.7191,40.0237 81.0425,40.438 81.3659,40.7614 81.6893,41.0849 82.0127,41.4082 82.3259,41.6406 82.6494,41.8731 82.9728,42.0551 83.2557,42.1864 83.5792,42.3279 83.9025,42.4188 84.1754,42.4694 84.4988,42.5098 84.7716,42.5098 85.0547,42.5098 85.2871,42.4694 85.56,42.4188 85.7924,42.3279 86.0653,42.1864 86.3381,42.0551 86.5706,41.8731 86.803,41.681 86.9849,41.4486 87.2173,41.1757 87.3993,40.9433 87.5408,40.62 85.7418,36.3854 85.6509,36.1025 85.5094,35.87 85.4185,35.6881 85.3275,35.5062 85.2365,35.3243 85.1456,35.1828 85.0951,35.0919 85.0041,35.0009 84.8626,34.8594 84.7312,34.7684 84.5898,34.6775 84.4483,34.627 84.2663,34.627 84.0339,34.627 83.8014,34.7179 83.4882,34.8088 83.2961,34.3945 87.2679,32.7371 87.4498,33.1515 87.2679,33.202 87.1265,33.2929 86.9849,33.3839 86.894,33.4748 86.803,33.5658 86.7626,33.7073 86.712,33.7982 86.6616,33.9801 86.6616,34.1217 86.712,34.2631 86.712,34.3945 86.7626,34.5865 86.803,34.7684 86.894,35.0009 86.9849,35.2232 87.0759,35.4556 87.2173,35.779 89.1073,40.2561 88.8344,40.7614 88.511,41.2263 88.3695,41.4082 88.1875,41.5902 88.0057,41.772 87.8136,41.9641 87.4498,42.2875 87.0355,42.5604 86.5706,42.8332 86.1158,43.0657 85.7418,43.2071 85.378,43.3486 85.0041,43.4396 84.6403,43.48 84.2663,43.5306 83.943,43.5306 83.5792,43.5306 83.2052,43.48 82.8818,43.4396 82.518,43.3486 82.1946,43.2071 81.8206,43.0657 81.4972,42.9242 81.1335,42.7422 80.81,42.5098 80.4866,42.2369 79.9813,41.8731 79.5164,41.4082 79.0515,40.9433 78.6877,40.438 78.2734,39.8822 77.95,39.2859 77.6266,38.6896 77.3032,38.0429 77.1213,37.5376 76.9393,37.0727 76.7979,36.5674 76.6564,36.0621 76.5654,35.5466 76.4744,35.0413 76.4239,34.536 76.3835,34.0307 76.333,33.4243 76.3835,32.8785 76.4239,32.3227 76.4744,31.7669 76.5654,31.2616 76.7069,30.7967 76.8888,30.3419 77.0707,29.9275 77.2628,29.5536 77.4851,29.2302 77.7176,28.9573 78.0005,28.6744 78.3138,28.452 78.5968,28.2196 78.9606,27.9871 79.3345,27.8457 79.6074,27.7143 79.8903,27.6638 80.1127,27.5728 80.3957,27.5222 80.5372,27.5222 80.6686,27.5222 80.8504,27.5222 81.0425,27.5222 81.2244,27.5222 81.4568,27.5222 81.6893,27.5222 81.9116,27.5728 82.1441,27.5728 82.3259,27.5728 82.427,27.5728 82.4674,27.5728 82.518,27.5728 82.5584,27.5222 82.6494,27.5222 82.6999,27.4313 82.7504,27.3404 82.7504,27.2494 82.7504,27.1079 82.6999,26.926 82.6494,26.7441 82.5584,26.4611 "/>
   <polygon class="fil2" points="95.1391,39.1678 95.23,39.6327 90.662,40.7849 90.5205,40.3704 90.9348,40.2795 91.0763,40.229 91.2179,40.138 91.3492,40.0875 91.4503,39.9561 91.5412,39.8651 91.6322,39.7237 91.6726,39.5822 91.7232,39.4508 91.7636,39.3093 91.7636,39.1678 91.7232,38.9859 91.7232,38.7535 91.6726,38.4806 91.6322,38.1976 91.5412,37.8743 91.4503,37.5609 88.7722,27.1313 88.6812,26.8079 88.6306,26.5855 88.5397,26.3026 88.4891,26.1207 88.4487,25.9388 88.3577,25.7467 88.3073,25.6154 88.2668,25.5245 88.1759,25.383 88.0748,25.292 87.9434,25.201 87.802,25.11 87.62,25.009 87.3875,24.9686 87.2057,24.9686 87.0136,25.009 86.6498,25.11 86.5083,24.6452 91.0763,23.4931 91.2179,23.9074 90.8439,23.9984 90.662,24.049 90.5205,24.1398 90.3891,24.2308 90.2881,24.3218 90.1971,24.4128 90.1061,24.5543 90.0657,24.6856 90.0152,24.8271 90.0152,24.9686 90.0152,25.11 90.0152,25.292 90.0152,25.5245 90.0657,25.7973 90.1567,26.0702 90.1971,26.3936 90.2881,26.7169 92.9662,37.187 93.0572,37.4598 93.1077,37.7429 93.1987,37.9753 93.2391,38.1976 93.3401,38.3896 93.3805,38.521 93.4311,38.6625 93.4715,38.7535 93.5625,38.8949 93.704,38.9859 93.7949,39.1274 93.9364,39.1678 94.1689,39.2588 94.3507,39.3093 94.5327,39.3093 94.7651,39.3093 "/>
   <polygon class="fil2" points="93.7258,23.1867 96.7172,22.8735 104.792,34.3541 103.731,24.9452 103.731,24.5712 103.68,24.2479 103.589,23.975 103.539,23.7021 103.499,23.5101 103.448,23.3282 103.357,23.1867 103.317,23.0553 103.226,22.9643 103.125,22.8735 102.993,22.7724 102.902,22.7319 102.761,22.6814 102.619,22.6814 102.488,22.6814 102.296,22.6814 101.932,22.7319 101.882,22.267 105.712,21.8527 105.752,22.267 105.338,22.3176 105.207,22.358 105.065,22.4086 104.923,22.449 104.792,22.55 104.701,22.641 104.6,22.7724 104.509,22.9139 104.469,23.0553 104.418,23.1867 104.378,23.3282 104.378,23.5101 104.378,23.7021 104.378,23.9345 104.418,24.2074 104.418,24.5308 104.469,24.8543 105.985,38.5987 105.712,38.6392 97.0002,26.2792 98.1017,36.3349 98.1523,36.6988 98.1927,37.0221 98.2433,37.3051 98.3342,37.5376 98.3747,37.7598 98.4252,37.9519 98.4757,38.0833 98.5666,38.1743 98.6576,38.3157 98.7486,38.4067 98.8395,38.4572 98.981,38.5482 99.1124,38.5482 99.2539,38.5987 99.3954,38.5987 99.5267,38.5987 99.9512,38.5482 99.9916,39.0131 96.1614,39.4274 96.1209,38.9625 96.4848,38.912 96.6768,38.912 96.8082,38.8716 96.9497,38.7806 97.0911,38.73 97.1821,38.5987 97.2731,38.4976 97.364,38.3662 97.4146,38.1743 97.455,38.0833 97.455,37.9519 97.5055,37.7598 97.5055,37.5376 97.5055,37.3051 97.455,37.0221 97.455,36.7492 97.4146,36.4258 96.1614,25.0867 96.03,24.8947 95.8885,24.7128 95.747,24.5712 95.656,24.4398 95.5651,24.2984 95.4742,24.2074 95.3832,24.1165 95.2923,24.0659 95.1507,23.9345 94.9689,23.8335 94.7364,23.7426 94.504,23.6516 94.3625,23.6112 94.2311,23.6112 93.9987,23.6112 93.8167,23.6112 "/>
   <polygon class="fil2" points="112.21,23.0553 111.705,29.6446 114.1,29.8366 114.332,29.8366 114.565,29.8366 114.747,29.8366 114.939,29.7861 115.07,29.7356 115.212,29.6446 115.302,29.6042 115.394,29.5132 115.535,29.3717 115.626,29.1898 115.717,28.9573 115.808,28.7249 115.858,28.4924 115.949,28.2196 116,27.8962 116.04,27.5728 116.313,27.5728 115.899,33.3839 115.575,33.3333 115.575,33.0605 115.575,32.7876 115.575,32.5552 115.535,32.3227 115.535,32.1408 115.535,31.9993 115.485,31.8578 115.485,31.7669 115.394,31.5344 115.302,31.3525 115.212,31.2111 115.07,31.0291 114.979,30.9887 114.888,30.9382 114.747,30.8977 114.656,30.8472 114.514,30.7967 114.383,30.7563 114.201,30.7563 114.06,30.7058 111.614,30.5238 111.199,36.0115 111.149,36.2843 111.149,36.5168 111.149,36.6988 111.149,36.8907 111.149,37.0727 111.149,37.1636 111.149,37.3051 111.149,37.3455 111.199,37.487 111.25,37.578 111.29,37.669 111.341,37.7598 111.432,37.8104 111.563,37.9014 111.755,37.9014 111.937,37.9519 113.827,38.0833 114.06,38.1338 114.241,38.1338 114.474,38.1338 114.615,38.1338 114.797,38.0833 114.939,38.0833 115.07,38.0429 115.212,37.9923 115.302,37.9519 115.394,37.9014 115.535,37.8104 115.626,37.7598 115.767,37.669 115.858,37.5376 115.949,37.4365 116.091,37.3051 116.222,37.1232 116.364,36.8907 116.505,36.6583 116.637,36.3854 116.829,36.1025 116.96,35.779 117.101,35.4556 117.283,35.0919 117.607,35.1323 116.313,39.1949 107.834,38.5482 107.874,38.0833 108.248,38.1338 108.481,38.1338 108.663,38.0833 108.845,37.9923 109.027,37.9014 109.168,37.7598 109.259,37.669 109.35,37.487 109.451,37.3455 109.451,37.2141 109.492,37.0727 109.492,36.9312 109.542,36.7492 109.582,36.5168 109.582,36.2843 109.633,36.0115 109.633,35.7386 110.502,24.9452 110.502,24.5308 110.553,24.2074 110.553,23.9345 110.553,23.6516 110.553,23.4192 110.502,23.2372 110.502,23.0957 110.462,22.9643 110.371,22.8229 110.28,22.7319 110.189,22.641 110.088,22.55 109.956,22.4994 109.815,22.449 109.673,22.4086 109.492,22.4086 109.128,22.358 109.168,21.9033 117.657,22.5904 117.475,26.2388 117.152,26.1883 117.152,25.9154 117.101,25.592 117.101,25.309 117.051,25.0867 117.051,24.8947 117.011,24.6723 116.96,24.5308 116.92,24.3894 116.829,24.1165 116.687,23.9345 116.546,23.7426 116.364,23.5606 116.273,23.5101 116.182,23.4696 116.04,23.4192 115.949,23.4192 115.767,23.3788 115.626,23.3282 115.444,23.3282 115.252,23.2878 "/>
   <polygon class="fil2" points="133.009,26.1478 132.877,26.6026 132.594,26.6026 132.321,26.6531 132.089,26.7441 131.857,26.8855 131.725,27.0169 131.584,27.1585 131.442,27.3404 131.301,27.5222 131.119,27.7143 130.977,27.9366 130.795,28.1691 130.664,28.452 123.327,40.8119 123.003,40.7108 122.731,26.0973 122.68,25.8245 122.68,25.592 122.68,25.3596 122.68,25.1776 122.68,24.9856 122.64,24.8543 122.64,24.7633 122.64,24.6723 122.539,24.4803 122.498,24.2984 122.407,24.1569 122.316,23.975 122.175,23.8335 121.993,23.7426 121.801,23.6112 121.579,23.5101 121.71,23.0957 126.045,24.2984 125.955,24.7128 125.773,24.6723 125.591,24.6723 125.449,24.6723 125.308,24.6723 125.176,24.7128 125.035,24.7128 124.944,24.7633 124.893,24.8037 124.752,24.9452 124.62,25.0867 124.53,25.2686 124.479,25.4505 124.439,25.592 124.388,25.7739 124.388,25.9558 124.338,26.1883 124.338,26.4611 124.338,26.7441 124.338,27.0169 124.338,27.3404 124.57,37.3051 129.552,28.9068 129.734,28.5834 129.876,28.3106 130.017,28.0377 130.108,27.8053 130.239,27.6233 130.29,27.4313 130.381,27.2494 130.432,27.1079 130.432,26.926 130.432,26.7845 130.432,26.6026 130.381,26.4207 130.341,26.3298 130.29,26.2388 130.199,26.1478 130.149,26.0467 130.058,26.0063 129.967,25.9154 129.734,25.7739 129.643,25.7234 129.603,25.683 129.694,25.2686 "/>
   <path class="fil2" d="M138.496 47.2597l-2.6681 -1.334 0.182 -8.6712 -0.182 -0.0404 -0.1919 -0.0909 -0.1314 -0.0505 -0.091 -0.091 -0.1011 -0.0505 -0.1313 -0.0405 -0.091 -0.0505 -0.1011 -0.091 -2.2132 4.3357 -0.1314 0.3233 -0.1415 0.3234 -0.1415 0.2729 -0.0909 0.2324 -0.091 0.2325 -0.0404 0.1818 0 0.1416 0 0.1314 0 0.1415 0.0404 0.1414 0.0506 0.1415 0.0404 0.1314 0.0909 0.091 0.1011 0.0909 0.1314 0.1011 0.091 0.0909 0.4143 0.182 -0.2224 0.4143 -4.2041 -2.1223 0.1919 -0.4144 0.3639 0.182 0.1819 0.0504 0.1415 0.0405 0.1415 0 0.1314 0 0.192 0 0.1314 -0.0909 0.1415 -0.091 0.1414 -0.091 0.091 -0.0909 0.091 -0.091 0.1415 -0.1414 0.0909 -0.182 0.1314 -0.2325 0.1415 -0.2324 0.1415 -0.2729 0.1414 -0.2829 4.8409 -9.6312 0.1819 -0.3235 0.1415 -0.3233 0.091 -0.2729 0.0909 -0.2324 0.091 -0.2325 0.0505 -0.1819 0.0404 -0.1415 0 -0.1415 -0.0404 -0.1313 0 -0.1415 -0.1011 -0.1416 -0.0404 -0.1313 -0.0909 -0.1011 -0.091 -0.0909 -0.1011 -0.091 -0.1313 -0.091 -0.374 -0.1818 0.1921 -0.4144 3.5876 1.8393 0.374 0.192 0.3638 0.182 0.3234 0.1819 0.283 0.1819 0.2324 0.192 0.2224 0.1819 0.192 0.1819 0.1819 0.182 0.1415 0.1919 0.0909 0.2224 0.091 0.2324 0.091 0.2325 0.0909 0.2324 0.0506 0.2729 0.0404 0.2829 0 0.2729 0 0.2729 0 0.3234 -0.0404 0.3234 -0.0506 0.2829 -0.0909 0.3134 -0.1416 0.3233 -0.0908 0.3234 -0.182 0.3235 -0.1415 0.3233 -0.2324 0.3234 -0.1819 0.2831 -0.2324 0.2728 -0.2224 0.2325 -0.2325 0.2324 -0.2829 0.2223 -0.2224 0.192 -0.3234 0.1314 -0.2829 0.1415 -0.3235 0.1415 -0.2728 0.0405 -0.3234 0.0504 -0.374 0.0404 -0.3132 0 -0.3739 -0.0404 -0.091 5.3059 0 0.4143 0 0.4143 0 0.3638 0 0.3235 0.0404 0.3234 0.0506 0.2829 0.0505 0.2224 0.0404 0.1919 0.0909 0.182 0.091 0.1819 0.1011 0.1819 0.1314 0.1415 0.0909 0.1415 0.192 0.1819 0.1314 0.1415 0.192 0.1314 -0.192 0.4143zm-3.1835 -11.1976l0.1415 0.0909 0.091 0.0404 0.091 0.0505 0.0909 0.0404 0.3234 0.1415 0.3739 0.1416 0.3234 0.0404 0.3235 0.0505 0.3233 0 0.3234 -0.0505 0.3234 -0.0404 0.2729 -0.1416 0.2729 -0.1415 0.2829 -0.1818 0.2729 -0.2325 0.2324 -0.2223 0.2325 -0.283 0.2324 -0.2728 0.182 -0.3235 0.1818 -0.3234 0.182 -0.3739 0.1415 -0.3234 0.0909 -0.3234 0.0909 -0.3133 0.0506 -0.3234 0.0404 -0.3234 0 -0.2829 0 -0.3235 -0.0404 -0.2728 -0.091 -0.2325 -0.0909 -0.2728 -0.1415 -0.182 -0.1415 -0.2324 -0.1819 -0.1415 -0.1819 -0.1819 -0.2325 -0.0909 -0.1414 -0.0506 -0.091 -0.0909 -0.1415 -0.0506 -0.1819 -0.0404 -0.1415 -0.0505 -0.1819 -0.0405 -0.1819 0 -0.1819 -0.0505 -3.1431 6.1851z"/>
   <path class="fil2" d="M147.4 47.2193l-3.4159 -2.5872 -2.1628 1.5664 -0.1819 0.1416 -0.192 0.1415 -0.1314 0.1414 -0.1415 0.091 -0.1414 0.1314 -0.091 0.0909 -0.1415 0.1415 -0.0404 0.0909 -0.091 0.1416 -0.0909 0.1819 -0.0505 0.1414 0 0.182 0.0505 0.0909 0 0.091 0.0404 0.1414 0.0909 0.091 0.091 0.1415 0.1011 0.091 0.091 0.1414 0.1314 0.1314 -0.273 0.3739 -2.7185 -2.1222 0.2324 -0.3639 0.182 0.0404 0.1414 0.091 0.1314 0 0.1415 0.0505 0.1415 0 0.0909 0.0405 0.091 -0.0405 0.0909 0 0.182 -0.0909 0.2324 -0.091 0.2325 -0.101 0.2324 -0.1314 0.2729 -0.1921 0.3233 -0.2222 0.3234 -0.2325 0.3639 -0.2324 11.2583 -8.2569 0.2324 0.182 -5.2148 13.0572 -0.1819 0.4144 -0.091 0.3234 -0.1414 0.3233 -0.091 0.273 -0.0505 0.2829 -0.0404 0.2224 -0.0506 0.1919 0 0.182 0 0.1414 0.0506 0.1314 0.0404 0.1819 0.0505 0.1416 0.0405 0.0909 0.101 0.1415 0.0909 0.1415 0.1314 0.0909 -0.2728 0.3638 -3.4563 -2.668 0.2728 -0.3234 0.1415 0.0404 0.1314 0.091 0.1414 0.0505 0.091 0.0505 0.091 0.0405 0.1415 0 0.091 0 0.0909 0 0.1415 -0.0405 0.1819 -0.101 0.1414 -0.091 0.1416 -0.1819 0.0404 -0.0909 0.0909 -0.1415 0.091 -0.1314 0.101 -0.192 0.091 -0.2325 0.1314 -0.2223 0.1011 -0.2324 0.091 -0.283 0.9196 -2.2537zm0.3638 -0.8287l2.5367 -6.3669 -5.5787 4.0626 3.042 2.3043z"/>
   <polygon class="fil2" points="157.365,61.1457 154.414,62.4797 150.351,57.4063 150.674,57.1335 151.271,57.083 151.877,57.0425 152.423,57.0425 152.979,56.992 153.484,56.9516 153.989,56.901 154.505,56.8606 154.959,56.8101 155.424,56.7596 155.889,56.7192 156.303,56.6686 156.718,56.6282 157.082,56.5372 157.456,56.4867 157.819,56.3957 158.143,56.3452 158.79,56.1633 159.436,55.9814 159.992,55.7994 160.538,55.567 161.053,55.2841 161.559,55.0617 161.973,54.7383 162.387,54.4553 162.711,54.1825 162.943,53.95 163.216,53.6772 163.398,53.4447 163.59,53.1617 163.772,52.8889 163.913,52.616 164.004,52.3331 164.095,52.0602 164.136,51.8278 164.136,51.5548 164.136,51.3224 164.095,51.09 164.045,50.9081 163.954,50.6756 163.812,50.5341 163.681,50.3522 163.54,50.2107 163.398,50.1198 163.216,50.0288 163.034,49.9379 162.802,49.8874 162.62,49.8469 162.387,49.7964 162.115,49.7964 161.882,49.7964 161.599,49.8469 161.326,49.8874 161.053,49.9884 160.77,50.0793 160.447,50.2107 160.174,50.3522 159.942,50.1198 160.407,49.8469 160.861,49.574 161.326,49.3416 161.741,49.2001 162.155,49.0182 162.529,48.9273 162.943,48.8363 163.307,48.8363 163.631,48.7858 164.004,48.8363 164.277,48.8767 164.601,48.9677 164.833,49.1091 165.106,49.2911 165.338,49.473 165.52,49.7054 165.702,49.9884 165.894,50.2613 165.985,50.5341 166.076,50.8576 166.076,51.1809 166.076,51.5548 166.026,51.8783 165.935,52.2421 165.803,52.616 165.662,52.9798 165.48,53.3033 165.247,53.6772 165.015,53.95 164.742,54.2735 164.459,54.5463 164.136,54.8292 163.631,55.1931 163.125,55.5165 162.529,55.8399 161.973,56.0723 161.468,56.2543 160.952,56.4361 160.447,56.5776 159.901,56.7192 159.345,56.8606 158.739,56.9516 158.143,57.0425 157.496,57.1335 157.041,57.1739 156.576,57.2245 156.162,57.2749 155.788,57.3154 155.424,57.3659 155.05,57.4063 154.727,57.4569 154.414,57.4569 154.131,57.4973 153.898,57.5478 153.676,57.5478 153.443,57.5984 153.251,57.5984 153.069,57.5984 152.938,57.5984 152.837,57.5984 154.636,59.852 154.777,60.034 154.868,60.1755 155.01,60.3169 155.101,60.4483 155.242,60.5494 155.333,60.6404 155.424,60.7313 155.465,60.7718 155.657,60.8626 155.788,60.9637 155.98,61.0042 156.202,61.0042 156.394,61.0547 156.627,61.0042 156.9,60.9637 157.132,60.9132 "/>
   <polygon class="fil2" points="161.69,68.3817 158.608,69.3115 155.283,63.6823 155.657,63.4499 156.253,63.5408 156.849,63.5914 157.405,63.6318 157.961,63.6823 158.466,63.7228 158.971,63.7228 159.477,63.7732 159.942,63.7732 160.407,63.7732 160.861,63.8238 161.276,63.8238 161.69,63.8238 162.115,63.7732 162.478,63.7732 162.852,63.7732 163.176,63.7228 163.863,63.6823 164.51,63.5408 165.106,63.4499 165.662,63.3084 166.218,63.1265 166.723,62.9446 167.178,62.7121 167.643,62.4797 167.966,62.2473 168.289,62.0653 168.562,61.8328 168.795,61.6106 169.027,61.3781 169.209,61.0951 169.401,60.8626 169.533,60.5898 169.623,60.3573 169.714,60.0845 169.815,59.852 169.815,59.6196 169.815,59.3871 169.765,59.1649 169.714,58.9728 169.623,58.7909 169.492,58.609 169.351,58.4675 169.209,58.3361 169.078,58.1947 168.886,58.1037 168.704,58.0127 168.471,57.9116 168.289,57.8712 168.017,57.8208 167.784,57.8208 167.501,57.8208 167.228,57.8208 166.955,57.8712 166.632,57.9116 166.309,58.0127 165.985,58.1037 165.844,57.8208 166.349,57.5984 166.814,57.4063 167.279,57.2749 167.734,57.1335 168.148,57.083 168.562,56.992 168.936,56.992 169.3,56.992 169.674,57.0425 169.997,57.1335 170.321,57.2245 170.594,57.3659 170.826,57.5478 171.059,57.7298 171.24,57.9622 171.422,58.1947 171.564,58.518 171.655,58.7909 171.746,59.1143 171.796,59.4377 171.746,59.7611 171.705,60.0845 171.614,60.4483 171.473,60.7718 171.291,61.1457 171.099,61.4691 170.877,61.7924 170.594,62.0653 170.321,62.3483 169.997,62.6212 169.674,62.8536 169.3,63.0861 169.078,63.2679 168.795,63.3993 168.198,63.6318 167.602,63.8642 166.996,64.0057 166.491,64.1371 165.935,64.2381 165.429,64.2786 164.874,64.3695 164.277,64.4201 163.681,64.4201 163.075,64.4605 162.428,64.4201 161.973,64.4201 161.508,64.4201 161.094,64.4201 160.68,64.3695 160.316,64.3695 159.942,64.3695 159.618,64.3695 159.345,64.3695 159.062,64.3291 158.79,64.3291 158.557,64.3291 158.325,64.3291 158.143,64.2786 158.001,64.2786 157.87,64.2786 157.729,64.2786 159.204,66.7748 159.295,66.9062 159.436,67.0982 159.527,67.2296 159.618,67.3711 159.709,67.5126 159.76,67.6035 159.851,67.6945 159.901,67.7854 160.033,67.8764 160.215,67.9674 160.407,68.0583 160.589,68.1088 160.77,68.1493 161.003,68.1493 161.276,68.1493 161.559,68.1088 "/>
   <path class="fil2" d="M168.34 79.4075l-1.2532 -4.103 -2.6681 0 -0.2324 0 -0.2324 0.0404 -0.182 0 -0.1818 0 -0.1921 0.0506 -0.1314 0 -0.1414 0.0404 -0.1415 0 -0.182 0.101 -0.1414 0.091 -0.1314 0.0909 -0.1011 0.182 -0.0404 0.0504 -0.0506 0.091 0 0.1314 -0.0404 0.1415 0 0.1414 0.0404 0.1314 0 0.1921 0.0506 0.1818 -0.4144 0.1416 -1.0207 -3.325 0.4245 -0.1415 0.0909 0.1415 0.091 0.1415 0.091 0.0909 0.0909 0.1415 0.0909 0.0405 0.091 0.0909 0.091 0.0506 0.0505 0.0404 0.1819 0.0506 0.2325 0.0504 0.2728 0.0404 0.283 0 0.3234 0.0506 0.3638 0 0.4144 0 0.4649 0 13.9768 -0.091 0.091 0.2729 -11.9051 7.5595 -0.3638 0.2324 -0.2729 0.1819 -0.283 0.192 -0.2728 0.182 -0.182 0.1819 -0.192 0.1819 -0.1313 0.1415 -0.1011 0.1415 -0.091 0.0909 -0.0404 0.1415 -0.0506 0.1314 -0.0404 0.1415 -0.0505 0.1819 0 0.1415 0 0.1415 0.0505 0.1818 -0.4143 0.1416 -1.2532 -4.2042 0.4144 -0.1314 0.0505 0.1314 0.091 0.1414 0.0504 0.1415 0.091 0.091 0.0404 0.091 0.1011 0.0909 0.091 0.0505 0.0404 0.0404 0.1819 0.0506 0.192 0.0404 0.182 -0.0404 0.1818 -0.0506 0.1416 -0.0404 0.1415 -0.0505 0.1313 -0.0909 0.192 -0.091 0.2224 -0.091 0.192 -0.0909 0.2223 -0.1415 0.2324 -0.1819 2.082 -1.2937zm0.7781 -0.4648l5.7707 -3.6888 -6.8722 0.0506 1.1015 3.6382z"/>
   <polygon class="fil2" points="181.751,93.5159 176.779,94.2536 176.779,93.9808 177.193,93.7988 177.607,93.6573 178.022,93.4755 178.345,93.3339 178.668,93.152 178.992,92.96 179.265,92.7781 179.497,92.5962 179.77,92.3132 180.053,92.0404 180.235,91.7169 180.417,91.3936 180.558,91.0702 180.599,90.7063 180.649,90.3324 180.649,89.9686 180.599,89.6856 180.558,89.4633 180.508,89.2308 180.417,88.9984 180.326,88.7659 180.184,88.5335 180.053,88.3516 179.861,88.1697 179.73,87.9878 179.497,87.7957 179.315,87.6644 179.083,87.4723 178.8,87.3409 178.577,87.1995 178.254,87.1085 177.971,86.967 177.415,86.7851 176.87,86.6437 176.314,86.5527 175.667,86.4617 175.071,86.4112 174.424,86.4112 173.727,86.4112 173.09,86.4617 172.483,86.5123 171.978,86.6032 171.422,86.6942 170.917,86.7851 170.412,86.9266 169.906,87.058 169.442,87.25 168.977,87.4319 168.522,87.6139 168.108,87.7957 167.734,88.0282 167.41,88.2606 167.087,88.4931 166.814,88.7255 166.582,88.9984 166.349,89.2308 166.167,89.5037 166.026,89.7867 165.894,90.009 165.803,90.292 165.702,90.5649 165.662,90.7973 165.662,91.0702 165.662,91.3531 165.702,91.626 165.753,91.9494 165.844,92.2222 165.985,92.5053 166.127,92.7781 166.309,93.0611 166.491,93.2834 166.723,93.5664 171.331,93.152 171.614,93.152 171.837,93.1015 172.12,93.0611 172.302,93.0611 172.483,93.0106 172.625,92.96 172.767,92.9196 172.858,92.9196 173.039,92.8286 173.181,92.6871 173.312,92.5962 173.403,92.4547 173.454,92.3637 173.454,92.3132 173.504,92.1818 173.504,92.0909 173.545,91.9494 173.545,91.8079 173.504,91.6765 173.504,91.5351 173.959,91.4845 174.333,95.7291 173.868,95.7797 173.868,95.5877 173.828,95.4057 173.777,95.2743 173.727,95.1732 173.636,95.0419 173.545,94.951 173.454,94.8499 173.312,94.8095 173.181,94.7589 173.039,94.7185 172.898,94.7185 172.716,94.7185 172.534,94.6679 172.302,94.6679 172.029,94.7185 171.746,94.7185 171.422,94.7185 166.582,95.1328 166.4,94.951 166.218,94.7185 166.026,94.4861 165.894,94.2536 165.702,94.0717 165.611,93.8393 165.48,93.6069 165.389,93.3744 165.156,92.9196 165.015,92.4547 164.924,91.9494 164.833,91.3936 164.833,90.9792 164.833,90.6154 164.874,90.2414 164.924,89.8776 164.964,89.5037 165.066,89.1803 165.197,88.8569 165.338,88.5335 165.52,88.2101 165.702,87.8867 165.935,87.6139 166.167,87.3409 166.44,87.058 166.723,86.7851 167.046,86.5527 167.41,86.3202 167.916,85.9564 168.522,85.6735 169.078,85.4005 169.714,85.1681 170.321,84.9862 171.008,84.8447 171.705,84.7134 172.393,84.6123 172.898,84.6123 173.454,84.5719 173.959,84.6123 174.464,84.6123 174.98,84.7134 175.485,84.7538 175.99,84.8447 176.496,84.9862 177.052,85.1681 177.607,85.35 178.113,85.5825 178.577,85.8149 179.032,86.0474 179.447,86.3202 179.821,86.6437 180.184,86.967 180.467,87.25 180.69,87.5734 180.882,87.8867 181.064,88.2101 181.205,88.5841 181.337,88.9478 181.387,89.3218 181.428,89.7361 181.478,90.009 181.478,90.3324 181.428,90.5649 181.387,90.8377 181.387,90.9792 181.337,91.1207 181.296,91.3026 181.205,91.4441 181.155,91.626 181.064,91.8584 180.973,92.0404 180.882,92.2728 180.791,92.5053 180.74,92.6871 180.69,92.8286 180.69,92.9196 180.74,93.0106 180.791,93.0611 180.831,93.1015 180.922,93.1924 180.973,93.1924 181.064,93.1924 181.155,93.243 181.246,93.243 181.337,93.243 181.478,93.243 181.62,93.243 181.751,93.243 "/>
   <path class="fil2" d="M181.205 104.35l-0.0506 0.2324 -0.0404 0.2829 -0.1011 0.2729 -0.0909 0.2324 -0.0909 0.2325 -0.1415 0.2224 -0.1314 0.2324 -0.182 0.2324 -0.192 0.1819 -0.1819 0.2325 -0.2324 0.1819 -0.2325 0.192 -0.2223 0.1819 -0.283 0.1819 -0.3234 0.1819 -0.2729 0.1416 -0.3233 0.1818 -0.3234 0.1415 -0.3739 0.1415 -0.3134 0.0909 -0.3739 0.091 -0.3234 0.091 -0.3638 0.0909 -0.374 0.0506 -0.4143 0.0404 -0.3638 0.0506 -0.4244 0 -0.3639 0.0504 -0.4144 0 -0.4143 -0.0504 -0.4649 -0.0506 -0.4143 0 -0.8793 -0.1314 -0.8287 -0.192 -0.7782 -0.2223 -0.7883 -0.2325 -0.6872 -0.3234 -0.6468 -0.3739 -0.6468 -0.3639 -0.5558 -0.4648 -0.2729 -0.2325 -0.2324 -0.2223 -0.2325 -0.2324 -0.2324 -0.2325 -0.1819 -0.2728 -0.1416 -0.2325 -0.1818 -0.2324 -0.091 -0.2729 -0.1415 -0.283 -0.091 -0.2324 -0.0909 -0.2729 -0.0405 -0.2729 0 -0.283 -0.0504 -0.2324 0 -0.2729 0.0504 -0.2728 0.0405 -0.3234 0.0505 -0.2324 0.091 -0.273 0.091 -0.2829 0.0909 -0.2324 0.1415 -0.2224 0.1313 -0.2325 0.1921 -0.2324 0.1819 -0.2324 0.1819 -0.1819 0.2325 -0.2325 0.2324 -0.1818 0.2325 -0.182 0.2728 -0.192 0.2729 -0.1819 0.3234 -0.1415 0.3234 -0.182 0.3234 -0.1414 0.3234 -0.091 0.3739 -0.1313 0.3234 -0.1011 0.3638 -0.0909 0.374 -0.0404 0.3638 -0.091 0.4143 -0.0506 0.4144 0 0.4144 -0.0505 0.4143 0 0.4143 0 0.4144 0.0505 0.4649 0 0.4649 0.0506 0.4547 0.091 0.4649 0.0404 0.4649 0.0909 0.4144 0.1011 0.4144 0.1313 0.4143 0.091 0.3638 0.1414 0.3739 0.182 0.3639 0.1415 0.3739 0.1819 0.3234 0.192 0.3234 0.182 0.3234 0.2324 0.3234 0.2223 0.2729 0.2324 0.2728 0.2325 0.2325 0.2324 0.2324 0.2325 0.1819 0.2223 0.192 0.2325 0.1314 0.2324 0.1415 0.2729 0.1415 0.2324 0.1314 0.2325 0.0909 0.2324 0.0506 0.2729 0.0909 0.2324 0.0506 0.283 0 0.2728 0 0.2325 0 0.2728 0 0.273zm-0.8288 -0.273l0 -0.1819 0 -0.1819 0 -0.1415 -0.0504 -0.1819 -0.0506 -0.192 -0.0404 -0.1314 -0.0506 -0.192 -0.0909 -0.1313 -0.091 -0.1921 -0.091 -0.1314 -0.0908 -0.1819 -0.1416 -0.1415 -0.1415 -0.1414 -0.1314 -0.1415 -0.192 -0.1314 -0.1819 -0.1415 -0.2324 -0.1415 -0.2224 -0.1819 -0.2829 -0.1415 -0.2729 -0.1313 -0.3234 -0.1415 -0.2829 -0.1416 -0.3639 -0.0909 -0.3234 -0.1314 -0.3638 -0.101 -0.374 -0.091 -0.3638 -0.091 -0.4244 -0.0909 -0.4144 -0.0909 -0.4547 -0.091 -0.4144 -0.0505 -0.4649 -0.0405 -0.5053 -0.0505 -0.4649 -0.0404 -0.4548 -0.0506 -0.4144 0 -0.4648 -0.0505 -0.4144 0 -0.3739 0.0505 -0.4143 0 -0.3639 0.0506 -0.3739 0.0404 -0.3234 0.0505 -0.3234 0.091 -0.3639 0.0404 -0.2829 0.101 -0.3133 0.091 -0.283 0.1314 -0.1819 0.091 -0.2324 0.101 -0.1415 0.0909 -0.1819 0.091 -0.1819 0.1415 -0.1416 0.091 -0.1313 0.1314 -0.1011 0.1414 -0.1313 0.1415 -0.091 0.1314 -0.1011 0.1415 -0.0404 0.1819 -0.0909 0.1415 -0.0506 0.1819 -0.0404 0.1415 0 0.1819 0 0.1819 0 0.2325 0 0.192 0 0.1819 0.0404 0.1415 0.0506 0.1819 0.0909 0.1819 0.0909 0.1819 0.091 0.192 0.091 0.1314 0.1415 0.182 0.1414 0.1414 0.1314 0.1819 0.1921 0.1415 0.1818 0.1819 0.182 0.1415 0.2324 0.1415 0.2325 0.1314 0.2324 0.1414 0.2729 0.1416 0.2728 0.1314 0.283 0.101 0.3234 0.1314 0.3234 0.0909 0.3234 0.1011 0.3638 0.0909 0.3739 0.091 0.4144 0.0909 0.4144 0.0405 0.4143 0.1011 0.4548 0.0404 0.4649 0.091 0.5053 0.0504 0.4649 0.0405 0.4548 0 0.4648 0.0505 0.4649 0 0.4144 0 0.4143 0 0.3639 -0.0505 0.4143 0 0.3739 -0.0405 0.3234 -0.0504 0.3235 -0.091 0.3233 -0.0404 0.3234 -0.1011 0.2729 -0.091 0.2728 -0.0909 0.1921 -0.091 0.2324 -0.0909 0.182 -0.1415 0.1313 -0.091 0.192 -0.1414 0.1314 -0.091 0.1415 -0.1314 0.1416 -0.1415 0.0908 -0.1819 0.091 -0.1415 0.091 -0.1415 0.0909 -0.1819 0.0506 -0.1819 0.0404 -0.1819 0.0506 -0.192 0.0504 -0.182z"/>
   <polygon class="fil2" points="177.557,120.217 172.302,118.6 172.393,118.327 172.767,118.418 173.13,118.468 173.504,118.509 173.828,118.559 174.151,118.559 174.424,118.6 174.697,118.6 174.98,118.559 175.202,118.559 175.435,118.509 175.667,118.468 175.899,118.377 176.132,118.276 176.314,118.185 176.496,118.094 176.728,117.963 176.87,117.821 177.052,117.73 177.193,117.538 177.324,117.407 177.415,117.265 177.516,117.084 177.607,116.942 177.648,116.76 177.698,116.528 177.739,116.346 177.739,116.164 177.698,115.972 177.648,115.75 177.607,115.558 177.516,115.376 177.375,115.194 177.233,115.012 177.052,114.82 176.91,114.688 176.728,114.547 176.546,114.456 176.314,114.314 176.132,114.224 175.899,114.173 175.718,114.133 175.576,114.082 175.394,114.042 175.202,114.042 175.02,114.042 174.889,114.042 174.697,114.082 174.515,114.082 174.282,114.173 173.959,114.274 173.636,114.456 173.272,114.638 172.898,114.82 172.483,115.103 172.029,115.376 171.564,115.699 171.19,115.972 170.826,116.204 170.503,116.437 170.179,116.669 169.906,116.801 169.623,116.993 169.401,117.084 169.209,117.174 168.795,117.356 168.38,117.447 167.916,117.538 167.501,117.589 167.046,117.589 166.582,117.538 166.127,117.447 165.662,117.356 165.247,117.174 164.833,117.033 164.459,116.801 164.095,116.619 163.772,116.346 163.489,116.113 163.216,115.79 162.984,115.517 162.751,115.143 162.569,114.82 162.428,114.496 162.337,114.133 162.296,113.759 162.296,113.435 162.337,113.071 162.428,112.698 162.62,112.283 162.802,111.869 162.852,111.828 162.893,111.737 162.984,111.636 163.034,111.545 163.176,111.414 163.267,111.313 163.398,111.182 163.54,111 163.681,110.858 163.812,110.717 163.913,110.575 164.004,110.444 164.045,110.353 164.095,110.262 164.136,110.211 164.186,110.161 164.186,110.029 164.186,109.939 164.136,109.888 164.095,109.797 164.045,109.747 164.004,109.706 163.954,109.656 163.863,109.615 163.681,109.524 163.449,109.423 163.54,109.1 168.795,110.717 168.704,111 168.289,110.949 167.875,110.899 167.501,110.858 167.178,110.808 166.864,110.808 166.582,110.767 166.309,110.767 166.076,110.808 165.844,110.808 165.611,110.858 165.389,110.949 165.197,111 164.964,111.091 164.783,111.182 164.55,111.313 164.368,111.454 164.186,111.596 164.045,111.737 163.913,111.869 163.772,112.051 163.631,112.243 163.54,112.425 163.449,112.607 163.358,112.789 163.307,113.071 163.267,113.304 163.267,113.526 163.307,113.718 163.358,113.951 163.398,114.173 163.489,114.365 163.631,114.587 163.772,114.779 163.954,114.961 164.136,115.103 164.328,115.234 164.51,115.376 164.742,115.517 164.964,115.608 165.197,115.699 165.52,115.75 165.803,115.79 166.127,115.841 166.4,115.841 166.723,115.79 167.046,115.699 167.37,115.608 167.693,115.467 167.825,115.426 167.966,115.325 168.148,115.234 168.38,115.052 168.663,114.911 168.936,114.729 169.26,114.496 169.623,114.274 169.997,114.042 170.361,113.809 170.685,113.577 170.968,113.395 171.24,113.253 171.513,113.112 171.746,112.98 171.978,112.89 172.393,112.698 172.807,112.566 173.272,112.475 173.686,112.475 174.151,112.425 174.565,112.475 175.02,112.566 175.525,112.698 175.899,112.839 176.263,112.98 176.637,113.162 176.961,113.344 177.284,113.577 177.557,113.85 177.84,114.133 178.062,114.405 178.295,114.729 178.436,115.052 178.577,115.376 178.668,115.699 178.709,116.022 178.709,116.346 178.668,116.669 178.577,116.993 178.476,117.225 178.386,117.407 178.295,117.639 178.153,117.821 178.022,118.054 177.84,118.236 177.648,118.418 177.415,118.6 177.233,118.792 177.102,118.923 177.001,119.024 176.961,119.155 176.91,119.246 176.961,119.337 176.961,119.438 177.052,119.529 177.052,119.57 177.102,119.62 177.193,119.661 177.233,119.711 177.324,119.762 177.415,119.853 177.648,119.944 "/>
   <polygon class="fil2" points="171.978,132.627 168.431,130.959 168.562,130.687 168.795,130.778 169.027,130.869 169.209,130.919 169.401,131.01 169.583,131.05 169.714,131.101 169.856,131.101 169.997,131.151 170.361,131.151 170.685,131.151 170.968,131.101 171.24,131.01 171.331,130.959 171.473,130.869 171.564,130.778 171.655,130.687 171.796,130.545 171.837,130.454 171.928,130.313 172.029,130.181 172.716,128.746 161.326,123.077 161.003,122.935 160.68,122.804 160.407,122.662 160.174,122.571 159.942,122.521 159.76,122.48 159.618,122.43 159.477,122.43 159.345,122.43 159.204,122.48 159.113,122.521 158.971,122.612 158.881,122.713 158.79,122.804 158.699,122.935 158.608,123.077 158.426,123.4 158.052,123.218 160.124,119.024 160.538,119.206 160.356,119.57 160.265,119.711 160.265,119.853 160.215,120.035 160.215,120.176 160.265,120.307 160.316,120.449 160.407,120.59 160.498,120.722 160.538,120.813 160.68,120.914 160.821,121.005 161.003,121.136 161.185,121.278 161.417,121.419 161.69,121.551 162.013,121.692 173.403,127.362 174.01,126.169 174.151,125.846 174.242,125.563 174.333,125.34 174.333,125.108 174.333,125.017 174.282,124.876 174.282,124.734 174.191,124.603 174.151,124.461 174.05,124.37 173.959,124.229 173.868,124.087 173.727,123.905 173.595,123.764 173.454,123.632 173.272,123.491 173.09,123.349 172.858,123.218 172.665,123.077 172.443,122.935 172.574,122.662 175.99,124.501 "/>
   <path class="fil2" d="M166.763 140.186l-0.1314 0.2324 -0.192 0.1819 -0.182 0.1819 -0.2324 0.1415 -0.2223 0.182 -0.192 0.1414 -0.2729 0.091 -0.2324 0.0909 -0.2729 0.091 -0.283 0.091 -0.2729 0.0505 -0.3233 0.0505 -0.273 0.0404 -0.3233 0 -0.3739 0.0505 -0.3234 -0.0505 -0.3639 0 -0.3739 -0.0404 -0.3234 -0.101 -0.3639 -0.0405 -0.3739 -0.0909 -0.3233 -0.091 -0.3638 -0.1415 -0.374 -0.1414 -0.3234 -0.1314 -0.3638 -0.1921 -0.3739 -0.1819 -0.3134 -0.1819 -0.3739 -0.2324 -0.3233 -0.2325 -0.3639 -0.2324 -0.3739 -0.2325 -0.3234 -0.2728 -0.3639 -0.3235 -0.3234 -0.2728 -0.3233 -0.283 -0.283 -0.2728 -0.2729 -0.3234 -0.2729 -0.2729 -0.2324 -0.3234 -0.2325 -0.283 -0.2324 -0.3234 -0.1819 -0.3132 -0.1819 -0.3235 -0.192 -0.3234 -0.1819 -0.3233 -0.1415 -0.3235 -0.091 -0.3739 -0.1314 -0.3234 -0.0909 -0.3234 -0.1011 -0.3234 -0.0404 -0.3234 -0.0505 -0.3133 0 -0.283 0 -0.2729 0 -0.3233 0.0505 -0.283 0.0404 -0.2729 0.1011 -0.2324 0.0909 -0.2729 0.091 -0.2324 0.1314 -0.2729 0.1415 -0.2324 0.1414 -0.2325 0.182 -0.1819 0.1819 -0.2324 0.2324 -0.182 0.182 -0.1818 0.2324 -0.1415 0.2324 -0.1416 0.2324 -0.1414 0.273 -0.091 0.2829 -0.0909 0.2728 -0.091 0.2729 -0.091 0.283 -0.0504 0.3234 0 0.3234 -0.0405 0.3234 0 0.3639 0.0405 0.3233 0 0.3739 0.0504 0.3638 0.091 0.3235 0.0505 0.3638 0.091 0.3739 0.1314 0.3639 0.101 0.3234 0.1314 0.3739 0.1921 0.3639 0.1818 0.3739 0.182 0.3638 0.1819 0.3739 0.2324 0.3638 0.2325 0.374 0.2728 0.3638 0.283 0.3739 0.2729 0.3638 0.2729 0.3234 0.3233 0.3234 0.283 0.283 0.3235 0.3234 0.3233 0.2223 0.2728 0.283 0.3235 0.2324 0.3234 0.2224 0.3638 0.192 0.3234 0.1819 0.3234 0.1415 0.3739 0.1819 0.3235 0.0909 0.3638 0.1416 0.3739 0.0909 0.2729 0.0405 0.3234 0.0505 0.2728 0.0505 0.3234 0 0.283 0 0.2729 0 0.2728 0 0.283 -0.0505 0.2325 -0.091 0.2728 -0.0505 0.2325 -0.091 0.2324 -0.1415 0.2729 -0.0909 0.2324 -0.1314 0.2325 -0.192 0.1819zm-0.5963 -0.6468l0.1415 -0.1415 0.091 -0.1314 0.0404 -0.192 0.1011 -0.1314 0.0404 -0.192 0.0505 -0.1314 0.0404 -0.1819 0 -0.192 0 -0.1819 0 -0.182 -0.0404 -0.1818 0 -0.1921 -0.0505 -0.1819 -0.091 -0.2324 -0.0505 -0.182 -0.091 -0.1818 -0.1314 -0.2831 -0.1414 -0.2728 -0.1415 -0.2729 -0.182 -0.2324 -0.1818 -0.283 -0.182 -0.2728 -0.2324 -0.273 -0.2324 -0.2829 -0.273 -0.2728 -0.2829 -0.2831 -0.2728 -0.2728 -0.3235 -0.2729 -0.2829 -0.2829 -0.3638 -0.273 -0.374 -0.2728 -0.3638 -0.2829 -0.3739 -0.3235 -0.3638 -0.2324 -0.3739 -0.2729 -0.3639 -0.2324 -0.3739 -0.2325 -0.3638 -0.2223 -0.374 -0.192 -0.3234 -0.182 -0.3638 -0.1414 -0.3235 -0.1314 -0.3233 -0.1415 -0.3234 -0.091 -0.3235 -0.0909 -0.3233 -0.0909 -0.2729 -0.091 -0.3234 -0.0505 -0.4143 -0.0506 -0.4144 0 -0.3739 0.0506 -0.3639 0.0909 -0.3234 0.1415 -0.2829 0.1819 -0.2729 0.2325 -0.2324 0.2728 -0.091 0.1415 -0.1415 0.182 -0.0404 0.1818 -0.091 0.1415 -0.0505 0.182 -0.0404 0.192 -0.0505 0.1819 0 0.1818 0 0.2325 0 0.182 0.0505 0.2324 0 0.1819 0.0909 0.2324 0.0405 0.2325 0.0909 0.2324 0.1011 0.2325 0.091 0.2223 0.1314 0.2325 0.1414 0.2324 0.1415 0.2324 0.1819 0.2729 0.1819 0.2325 0.2325 0.2728 0.2324 0.2325 0.2325 0.2829 0.2728 0.2224 0.2729 0.2829 0.283 0.2729 0.3233 0.283 0.3639 0.2729 0.3234 0.2728 0.3739 0.283 0.4143 0.3234 0.4145 0.2728 0.3637 0.2325 0.374 0.2728 0.3638 0.2325 0.374 0.2324 0.3638 0.182 0.3739 0.1819 0.3233 0.1414 0.3235 0.182 0.3234 0.1415 0.3233 0.0909 0.3235 0.091 0.3234 0.0909 0.2729 0.0506 0.2728 0.0404 0.2325 0.0505 0.2324 0 0.2325 0 0.1818 0 0.182 0 0.1919 -0.0505 0.182 -0.0404 0.1819 -0.0506 0.1819 -0.0909 0.1415 -0.091 0.1819 -0.0909 0.1415 -0.091 0.1415 -0.0909 0.1314 -0.1416 0.1415 -0.1414 0.0909 -0.1819z"/>
   <polygon class="fil2" points="154.828,150.192 153.949,153.375 153.767,153.557 145.096,142.814 144.863,142.582 144.681,142.349 144.489,142.127 144.358,141.985 144.216,141.803 144.125,141.712 144.035,141.611 143.944,141.52 143.802,141.429 143.661,141.389 143.529,141.339 143.337,141.339 143.297,141.339 143.206,141.389 143.064,141.429 142.973,141.48 142.882,141.52 142.741,141.611 142.6,141.712 142.468,141.803 142.185,141.48 145.419,138.852 145.692,139.176 145.551,139.307 145.419,139.449 145.328,139.54 145.227,139.631 145.136,139.721 145.096,139.812 145.045,139.914 145.045,140.005 145.005,140.136 145.005,140.277 145.045,140.419 145.096,140.55 145.136,140.651 145.187,140.742 145.278,140.874 145.369,141.066 145.551,141.248 145.692,141.48 145.874,141.712 146.106,141.985 151.685,148.807 151.917,149.181 152.19,149.454 152.423,149.727 152.615,149.959 152.797,150.151 152.938,150.333 153.069,150.464 153.16,150.565 153.302,150.656 153.443,150.747 153.575,150.838 153.676,150.889 153.807,150.889 153.898,150.889 153.989,150.838 154.09,150.788 154.131,150.697 154.181,150.656 154.272,150.565 154.313,150.464 154.363,150.373 154.414,150.242 154.454,150.101 154.505,149.959 "/>
   <path class="fil2" d="M142.418 151.394l0.4649 0.1314 0.4144 0.192 0.4143 0.1313 0.3639 0.192 0.3233 0.1314 0.283 0.1921 0.2729 0.1314 0.1819 0.192 0.4144 0.3133 0.3233 0.3234 0.3234 0.4143 0.2831 0.4245 0.1818 0.3133 0.1819 0.3739 0.1416 0.3234 0.0908 0.3234 0.0506 0.3638 0.0404 0.3234 0 0.3739 0 0.3639 -0.0404 0.3234 -0.101 0.3233 -0.091 0.283 -0.1819 0.2729 -0.182 0.2324 -0.1818 0.2325 -0.2831 0.2223 -0.2728 0.192 -0.2829 0.1314 -0.2729 0.1415 -0.3234 0.0909 -0.2729 0 -0.283 0.0506 -0.3233 -0.0506 -0.3235 -0.0404 -0.2728 -0.1414 -0.3235 -0.091 -0.2728 -0.1819 -0.2829 -0.192 -0.2224 -0.182 -0.2325 -0.1819 -0.2324 -0.283 -0.1819 -0.2223 -0.192 -0.283 -0.1314 -0.2324 -0.091 -0.1819 -0.1011 -0.2324 -0.0404 -0.1819 -0.1414 -0.5054 -0.091 -0.4648 0 -0.2729 0 -0.3234 0.0506 -0.3234 0.0404 -0.3234 0.0505 -0.3638 0.0909 -0.374 0.091 -0.4143 0.1415 -0.4649 -0.5053 -0.1314 -0.4649 -0.192 -0.4143 -0.1314 -0.374 -0.1415 -0.3638 -0.1415 -0.3234 -0.1818 -0.2325 -0.1416 -0.2728 -0.1313 -0.283 -0.192 -0.2223 -0.182 -0.283 -0.2325 -0.2325 -0.2222 -0.2324 -0.2325 -0.1819 -0.2324 -0.2325 -0.2729 -0.1313 -0.283 -0.2325 -0.3638 -0.1819 -0.374 -0.1414 -0.3638 -0.091 -0.3739 -0.0506 -0.3639 -0.0404 -0.3739 -0.0505 -0.3638 0.0505 -0.3739 0.0404 -0.3639 0.091 -0.3233 0.1415 -0.3234 0.1415 -0.283 0.1819 -0.2729 0.2324 -0.2324 0.2325 -0.2325 0.3234 -0.1819 0.1313 -0.0909 0.1921 -0.0909 0.1819 -0.091 0.1819 -0.0506 0.1415 -0.0404 0.1819 -0.0505 0.1819 0 0.192 0 0.1819 0 0.182 0 0.1414 0.0505 0.1819 0.0404 0.182 0.0506 0.1818 0.0404 0.1921 0.091 0.1819 0.101 0.3234 0.1819 0.2728 0.182 0.2325 0.1818 0.2728 0.2325 0.2325 0.2324 0.192 0.2325 0.1819 0.2728 0.182 0.2831 0.1414 0.2222 0.1314 0.2325 0.1011 0.283 0.091 0.2223 0.0909 0.283 0.0405 0.2729 0.0504 0.2728 0.0506 0.283 0 0.2729 0 0.3233 0 0.3235 0 0.3739 -0.0506 0.3638 -0.0909 0.3739 -0.0505 0.4144 -0.091 0.4144zm-0.4547 1.7483l-0.0506 0.3739 0 0.3639 -0.0505 0.3234 0 0.3234 0 0.2729 0 0.2829 0.0505 0.2325 0.0506 0.1819 0.0909 0.3638 0.1313 0.4144 0.1921 0.3739 0.2224 0.4143 0.1414 0.2729 0.1819 0.2324 0.1416 0.182 0.1818 0.192 0.1921 0.1819 0.1818 0.1415 0.182 0.1314 0.1819 0.0909 0.192 0.1011 0.1819 0.0404 0.2324 0 0.182 0 0.1819 0 0.1819 -0.0404 0.192 -0.1011 0.1314 -0.0909 0.192 -0.091 0.1314 -0.1314 0.1415 -0.1415 0.091 -0.1415 0.0908 -0.1818 0.091 -0.182 0.0506 -0.192 0.0404 -0.2223 0 -0.192 0 -0.2224 0 -0.2325 -0.0404 -0.1919 -0.091 -0.2224 -0.0506 -0.192 -0.0908 -0.1819 -0.1416 -0.2324 -0.1313 -0.2325 -0.2324 -0.2729 -0.182 -0.2324 -0.2325 -0.1819 -0.2829 -0.2324 -0.2728 -0.182 -0.273 -0.1414 -0.3233 -0.1314 -1.9808 -0.6974zm-0.1011 -1.9303l0.0505 -0.5558 0 -0.5053 -0.0505 -0.5155 -0.0405 -0.2728 -0.0505 -0.2325 -0.0404 -0.2324 -0.0506 -0.2729 -0.0909 -0.2324 -0.0909 -0.2729 -0.2325 -0.4649 -0.2728 -0.5053 -0.1921 -0.3234 -0.2223 -0.2729 -0.192 -0.2829 -0.2224 -0.2324 -0.2324 -0.2224 -0.2325 -0.192 -0.2324 -0.1313 -0.2325 -0.1416 -0.2324 -0.0909 -0.2223 -0.091 -0.2324 -0.0505 -0.2325 -0.0405 -0.2324 0.0405 -0.182 0 -0.1819 0.0909 -0.192 0.091 -0.1819 0.1415 -0.1819 0.091 -0.1415 0.192 -0.091 0.1313 -0.0909 0.182 -0.091 0.192 -0.0505 0.1819 -0.0404 0.2324 0 0.2325 0 0.2224 0.0404 0.2324 0.0505 0.1819 0.0404 0.2324 0.1011 0.2325 0.091 0.2324 0.1314 0.2325 0.2324 0.3233 0.2325 0.3234 0.2728 0.2729 0.3234 0.2324 0.283 0.182 0.3638 0.1819 0.4143 0.2324 0.4144 0.1819 0.5154 0.192 0.5053 0.2224 0.5963 0.192 0.5963 0.2324z"/>
   <path class="fil2" d="M133.565 164.947l-0.1415 -0.3638 0.192 -0.182 0.2223 -0.1415 0.1921 -0.1414 0.1819 -0.1415 0.1819 -0.182 0.1415 -0.1313 0.1415 -0.192 0.0909 -0.182 0.1314 -0.1818 0.0909 -0.182 0.1011 -0.1919 0.091 -0.2325 0.0909 -0.2224 0.0404 -0.2829 0.1011 -0.2324 0.0404 -0.2729 0.091 -0.5963 0.091 -0.6063 0.0505 -0.5963 -0.0505 -0.5963 -0.0405 -0.6973 -0.0909 -0.6872 -0.091 -0.7378 -0.192 -0.7883 -0.1314 0.3739 -0.192 0.3639 -0.1819 0.2829 -0.2325 0.2729 -0.2324 0.2325 -0.2223 0.1818 -0.2325 0.1819 -0.283 0.1416 -0.2728 0.0909 -0.2729 0.0505 -0.2829 0 -0.273 -0.0505 -0.2728 -0.0909 -0.3234 -0.091 -0.283 -0.1819 -0.3234 -0.192 -0.3234 -0.2729 -0.3234 -0.2729 -0.2728 -0.2829 -0.2729 -0.3235 -0.2324 -0.3638 -0.2325 -0.4143 -0.2324 -0.4649 -0.2325 -0.4548 -0.1819 -0.4649 -0.1415 -0.4648 -0.1314 -0.4549 -0.0909 -0.4649 -0.0506 -0.4648 -0.0404 -0.4548 0 -0.4649 0 -0.4548 0.0404 -0.2829 0.0506 -0.2729 0.0404 -0.2324 0.0505 -0.2325 0.0405 -0.2324 0.0909 -0.2325 0.101 -0.1818 0.091 -0.182 0.091 -0.1819 0.1415 -0.1414 0.1314 -0.182 0.1414 -0.1415 0.1415 -0.091 0.182 -0.1414 0.1818 -0.091 0.182 -0.0909 0.2324 -0.091 0.283 -0.0506 0.2728 0 0.2729 0 0.283 0.0506 0.2729 0.091 0.2728 0.1415 0.283 0.1314 0.2729 0.1919 0.2829 0.182 0.2729 0.1818 0.2729 0.2325 0.2324 0.2324 0.2324 0.2325 0.2325 0.2728 0.2324 0.2729 0.2224 0.283 0.192 0.2729 0.2223 0.3234 0.1921 0.3233 0.1819 0.374 0.1819 0.3133 0.1819 0.3739 0.192 0.4143 0.182 0.4649 0.1818 0.5053 0.1415 0.5054 0.1415 0.5053 0.1314 0.5053 0.0909 0.5154 0.1011 0.5053 0.0404 0.5053 0.0506 0.5053 0 0.4649 0 0.5053 0 0.4649 -0.0506 0.5053 -0.0404 0.4548 -0.1011 0.4649 -0.0909 0.4649 -0.0909 0.4143 -0.1416 0.4144 -0.1313 0.3638 -0.1415 0.374 -0.1415 0.3233 -0.1819 0.2729 -0.1415 0.283 -0.1819 0.2223 -0.1819 0.2324 -0.1819 0.182 -0.1921 0.192 -0.1819 0.1313 -0.2324 0.1416 -0.1819 0.1415 -0.1819 0.091 -0.1819 0.0908 -0.4649 0.182zm1.4755 -9.5908l-0.1415 -0.3639 -0.091 -0.3739 -0.1313 -0.3233 -0.1011 -0.3234 -0.091 -0.2729 -0.1314 -0.2729 -0.101 -0.283 -0.0909 -0.2324 -0.2224 -0.5053 -0.283 -0.5559 -0.3638 -0.5457 -0.3739 -0.5558 -0.1819 -0.283 -0.1819 -0.2224 -0.1921 -0.2324 -0.2223 -0.2324 -0.192 -0.182 -0.2223 -0.1818 -0.1921 -0.1415 -0.1819 -0.1416 -0.1819 -0.0908 -0.1415 -0.0506 -0.1415 -0.0404 -0.1313 0 -0.1415 0 -0.1416 0 -0.1313 0 -0.1415 0.091 -0.1819 0.0504 -0.1415 0.1314 -0.0909 0.091 -0.1415 0.192 -0.091 0.1819 -0.0506 0.2325 -0.0909 0.2324 -0.0404 0.2729 0 0.2728 0 0.283 0.0404 0.3234 0.0505 0.3638 0.091 0.3235 0.091 0.3739 0.1415 0.4143 0.1818 0.4144 0.182 0.4547 0.2324 0.4144 0.1819 0.4144 0.2325 0.3739 0.283 0.3638 0.2223 0.3739 0.2324 0.3234 0.283 0.2729 0.1314 0.1415 0.1415 0.1414 0.1415 0.091 0.1313 0.091 0.1415 0.091 0.091 0.0909 0.1415 0.0505 0.1414 0.091 0.1314 0 0.091 0.0404 0.1415 0 0.1414 0.0505 0.091 -0.0505 0.1415 0 0.1314 -0.0404 0.0909 -0.0505 0.1415 -0.0405 0.1415 -0.0909 0.1314 -0.1415 0.1415 -0.1415 0.0505 -0.091 0.091 -0.0909 0.0404 -0.1415 0.1011 -0.1314 0.0909 -0.1415 0.0909 -0.1819 0.091 -0.192 0.091 -0.1819z"/>
   <path class="fil2" d="M120.649 157.66l-0.4548 -1.6574 1.425 -0.4144 -1.1016 -4.1536 1.2835 -0.3235 1.1622 4.1538 4.5175 -1.2027 0.3639 1.4755 -2.1628 11.7636 -0.8286 0.2325 -2.7692 -10.2881 -1.4351 0.4143zm2.7287 -0.7377l2.1122 7.8423 1.617 -8.853 -3.7292 1.0107z"/>
   <polygon class="fil2" points="95.2013,56.3957 95.2013,82.4597 69.1373,82.4597 69.1373,108.513 95.2013,108.513 95.2013,134.577 121.255,134.577 121.255,108.513 147.319,108.513 147.319,82.4597 121.255,82.4597 121.255,56.3957 "/>
  </g>
 </g>
</svg>
